G75*
%MOIN*%
%OFA0B0*%
%FSLAX25Y25*%
%IPPOS*%
%LPD*%
%AMOC8*
5,1,8,0,0,1.08239X$1,22.5*
%
%ADD10C,0.00000*%
%ADD11C,0.00300*%
%ADD12C,0.00700*%
%ADD13C,0.01600*%
%ADD14C,0.00400*%
%ADD15C,0.00800*%
%ADD16C,0.00600*%
%ADD17C,0.01200*%
%ADD18C,0.00500*%
D10*
X0027000Y0001000D02*
X0027000Y0225961D01*
X0370701Y0225961D01*
X0370701Y0001000D01*
X0027000Y0001000D01*
X0027000Y0006000D02*
X0027000Y0216000D01*
X0281000Y0216000D01*
X0287000Y0210000D01*
X0287000Y0165000D01*
X0297000Y0155000D01*
X0297000Y0026000D01*
X0287000Y0016000D01*
X0287000Y0006000D01*
X0027000Y0006000D01*
X0020000Y0021000D02*
X0020000Y0056000D01*
X0075000Y0056000D01*
X0075000Y0021000D01*
X0020000Y0021000D01*
X0001000Y0131000D02*
X0063000Y0131000D01*
X0063000Y0181000D01*
X0001000Y0181000D01*
X0001000Y0131000D01*
D11*
X0117148Y0136105D02*
X0120050Y0136105D01*
X0120050Y0137556D01*
X0119566Y0138040D01*
X0118599Y0138040D01*
X0118115Y0137556D01*
X0118115Y0136105D01*
X0118599Y0132147D02*
X0119083Y0132147D01*
X0119083Y0130212D01*
X0119566Y0130212D02*
X0118599Y0130212D01*
X0118115Y0130695D01*
X0118115Y0131663D01*
X0118599Y0132147D01*
X0120050Y0131663D02*
X0120050Y0130695D01*
X0119566Y0130212D01*
X0118115Y0129200D02*
X0120050Y0128233D01*
X0118115Y0127265D01*
X0118599Y0126254D02*
X0118115Y0125770D01*
X0118115Y0124802D01*
X0118599Y0124319D01*
X0119566Y0124319D01*
X0120050Y0124802D01*
X0120050Y0125770D01*
X0119566Y0126254D01*
X0118599Y0126254D01*
X0120050Y0123322D02*
X0120050Y0122354D01*
X0120050Y0122838D02*
X0117148Y0122838D01*
X0117148Y0122354D01*
X0118599Y0118396D02*
X0120050Y0118396D01*
X0118599Y0118396D02*
X0118115Y0117912D01*
X0118115Y0116945D01*
X0118599Y0116461D01*
X0118115Y0115464D02*
X0118115Y0114497D01*
X0117631Y0114981D02*
X0119566Y0114981D01*
X0120050Y0115464D01*
X0120050Y0116461D02*
X0117148Y0116461D01*
X0117148Y0113016D02*
X0116664Y0113016D01*
X0118115Y0113016D02*
X0120050Y0113016D01*
X0120050Y0112532D02*
X0120050Y0113500D01*
X0118115Y0113016D02*
X0118115Y0112532D01*
X0118115Y0111521D02*
X0119566Y0111521D01*
X0120050Y0111037D01*
X0119566Y0110553D01*
X0120050Y0110070D01*
X0119566Y0109586D01*
X0118115Y0109586D01*
X0118599Y0105628D02*
X0119083Y0105628D01*
X0119083Y0103693D01*
X0119566Y0103693D02*
X0118599Y0103693D01*
X0118115Y0104177D01*
X0118115Y0105144D01*
X0118599Y0105628D01*
X0120050Y0105144D02*
X0120050Y0104177D01*
X0119566Y0103693D01*
X0120050Y0102681D02*
X0120050Y0101230D01*
X0119566Y0100746D01*
X0118599Y0100746D01*
X0118115Y0101230D01*
X0118115Y0102681D01*
X0117148Y0102681D02*
X0120050Y0102681D01*
X0120050Y0099735D02*
X0120050Y0098284D01*
X0119566Y0097800D01*
X0119083Y0098284D01*
X0119083Y0099735D01*
X0118599Y0099735D02*
X0120050Y0099735D01*
X0118599Y0099735D02*
X0118115Y0099251D01*
X0118115Y0098284D01*
X0118599Y0096788D02*
X0120050Y0096788D01*
X0120050Y0095821D02*
X0118599Y0095821D01*
X0118115Y0096305D01*
X0118599Y0096788D01*
X0118599Y0095821D02*
X0118115Y0095337D01*
X0118115Y0094853D01*
X0120050Y0094853D01*
X0119566Y0139051D02*
X0120050Y0139535D01*
X0120050Y0140986D01*
X0120534Y0140986D02*
X0121017Y0140502D01*
X0121017Y0140019D01*
X0120534Y0140986D02*
X0118115Y0140986D01*
X0118115Y0139051D02*
X0119566Y0139051D01*
X0119566Y0144944D02*
X0120050Y0145428D01*
X0120050Y0146395D01*
X0119566Y0146879D01*
X0118599Y0146879D01*
X0118115Y0146395D01*
X0118115Y0145428D01*
X0118599Y0144944D01*
X0119566Y0144944D01*
X0120050Y0147891D02*
X0118115Y0147891D01*
X0118115Y0148374D01*
X0118599Y0148858D01*
X0118115Y0149342D01*
X0118599Y0149826D01*
X0120050Y0149826D01*
X0120050Y0148858D02*
X0118599Y0148858D01*
X0118599Y0150837D02*
X0118115Y0151321D01*
X0118115Y0152288D01*
X0118599Y0152772D01*
X0119083Y0152772D01*
X0119083Y0150837D01*
X0119566Y0150837D02*
X0118599Y0150837D01*
X0119566Y0150837D02*
X0120050Y0151321D01*
X0120050Y0152288D01*
X0120050Y0153784D02*
X0118115Y0153784D01*
X0118115Y0154751D02*
X0119083Y0153784D01*
X0118115Y0154751D02*
X0118115Y0155235D01*
X0117148Y0156239D02*
X0117148Y0156723D01*
X0120050Y0156723D01*
X0120050Y0156239D02*
X0120050Y0157207D01*
X0120050Y0158203D02*
X0120050Y0159655D01*
X0119566Y0160138D01*
X0119083Y0159655D01*
X0119083Y0158687D01*
X0118599Y0158203D01*
X0118115Y0158687D01*
X0118115Y0160138D01*
D12*
X0111650Y0161494D02*
X0106379Y0156223D01*
X0107697Y0153575D02*
X0109014Y0153575D01*
X0109014Y0148304D01*
X0107697Y0148304D02*
X0106379Y0149622D01*
X0106379Y0152258D01*
X0107697Y0153575D01*
X0111650Y0152258D02*
X0111650Y0149622D01*
X0110332Y0148304D01*
X0107697Y0148304D01*
X0111650Y0145657D02*
X0103743Y0145657D01*
X0106379Y0143021D01*
X0103743Y0140385D01*
X0111650Y0140385D01*
X0111650Y0137742D02*
X0110332Y0136424D01*
X0105061Y0136424D01*
X0106379Y0135106D02*
X0106379Y0137742D01*
X0107697Y0132459D02*
X0111650Y0132459D01*
X0107697Y0132459D02*
X0106379Y0131141D01*
X0106379Y0127188D01*
X0111650Y0127188D01*
X0109014Y0124540D02*
X0109014Y0119269D01*
X0107697Y0119269D02*
X0106379Y0120587D01*
X0106379Y0123222D01*
X0107697Y0124540D01*
X0109014Y0124540D01*
X0111650Y0123222D02*
X0111650Y0120587D01*
X0110332Y0119269D01*
X0107697Y0119269D01*
X0109014Y0116621D02*
X0103743Y0116621D01*
X0109014Y0116621D02*
X0111650Y0113986D01*
X0109014Y0111350D01*
X0103743Y0111350D01*
X0111650Y0156223D02*
X0106379Y0161494D01*
D13*
X0105854Y0166800D02*
X0102784Y0169869D01*
X0102784Y0176008D01*
X0105854Y0179077D01*
X0108923Y0179077D01*
X0115061Y0172939D01*
X0118131Y0172939D02*
X0121200Y0172939D01*
D14*
X0122963Y0067289D02*
X0122196Y0066522D01*
X0122196Y0064987D01*
X0122963Y0064220D01*
X0123731Y0064220D01*
X0124498Y0064987D01*
X0124498Y0066522D01*
X0125265Y0067289D01*
X0126033Y0067289D01*
X0126800Y0066522D01*
X0126800Y0064987D01*
X0126033Y0064220D01*
X0126800Y0062685D02*
X0125265Y0061150D01*
X0125265Y0061918D02*
X0125265Y0059616D01*
X0126800Y0059616D02*
X0122196Y0059616D01*
X0122196Y0061918D01*
X0122963Y0062685D01*
X0124498Y0062685D01*
X0125265Y0061918D01*
X0126800Y0058081D02*
X0126800Y0055012D01*
X0122196Y0055012D01*
X0122196Y0058081D01*
X0124498Y0056546D02*
X0124498Y0055012D01*
X0122196Y0053477D02*
X0125265Y0050408D01*
X0124498Y0051175D02*
X0126800Y0053477D01*
X0126800Y0050408D02*
X0122196Y0050408D01*
X0123731Y0048873D02*
X0126800Y0048873D01*
X0124498Y0048873D02*
X0124498Y0045804D01*
X0123731Y0045804D02*
X0122196Y0047339D01*
X0123731Y0048873D01*
X0123731Y0045804D02*
X0126800Y0045804D01*
X0126800Y0044269D02*
X0122196Y0044269D01*
X0123731Y0042735D01*
X0122196Y0041200D01*
X0126800Y0041200D01*
D15*
X0116600Y0042142D02*
X0115065Y0040608D01*
X0108927Y0040608D01*
X0107392Y0042142D01*
X0107392Y0045212D01*
X0108927Y0046746D01*
X0115065Y0046746D01*
X0116600Y0045212D01*
X0116600Y0042142D01*
X0107392Y0037539D02*
X0107392Y0031400D01*
X0107392Y0034469D02*
X0116600Y0034469D01*
X0116600Y0049816D02*
X0107392Y0049816D01*
X0110461Y0052885D01*
X0107392Y0055954D01*
X0116600Y0055954D01*
X0108927Y0068231D02*
X0107392Y0069766D01*
X0107392Y0072835D01*
X0108927Y0074370D01*
X0110461Y0074370D01*
X0113531Y0071301D01*
X0115065Y0071301D02*
X0116600Y0071301D01*
D16*
X0302500Y0099500D02*
X0302500Y0112500D01*
X0302502Y0112587D01*
X0302508Y0112674D01*
X0302517Y0112761D01*
X0302530Y0112847D01*
X0302547Y0112933D01*
X0302568Y0113018D01*
X0302593Y0113101D01*
X0302621Y0113184D01*
X0302652Y0113265D01*
X0302687Y0113345D01*
X0302726Y0113423D01*
X0302768Y0113500D01*
X0302813Y0113575D01*
X0302862Y0113647D01*
X0302913Y0113718D01*
X0302968Y0113786D01*
X0303025Y0113851D01*
X0303086Y0113914D01*
X0303149Y0113975D01*
X0303214Y0114032D01*
X0303282Y0114087D01*
X0303353Y0114138D01*
X0303425Y0114187D01*
X0303500Y0114232D01*
X0303577Y0114274D01*
X0303655Y0114313D01*
X0303735Y0114348D01*
X0303816Y0114379D01*
X0303899Y0114407D01*
X0303982Y0114432D01*
X0304067Y0114453D01*
X0304153Y0114470D01*
X0304239Y0114483D01*
X0304326Y0114492D01*
X0304413Y0114498D01*
X0304500Y0114500D01*
X0309500Y0114500D01*
X0309587Y0114498D01*
X0309674Y0114492D01*
X0309761Y0114483D01*
X0309847Y0114470D01*
X0309933Y0114453D01*
X0310018Y0114432D01*
X0310101Y0114407D01*
X0310184Y0114379D01*
X0310265Y0114348D01*
X0310345Y0114313D01*
X0310423Y0114274D01*
X0310500Y0114232D01*
X0310575Y0114187D01*
X0310647Y0114138D01*
X0310718Y0114087D01*
X0310786Y0114032D01*
X0310851Y0113975D01*
X0310914Y0113914D01*
X0310975Y0113851D01*
X0311032Y0113786D01*
X0311087Y0113718D01*
X0311138Y0113647D01*
X0311187Y0113575D01*
X0311232Y0113500D01*
X0311274Y0113423D01*
X0311313Y0113345D01*
X0311348Y0113265D01*
X0311379Y0113184D01*
X0311407Y0113101D01*
X0311432Y0113018D01*
X0311453Y0112933D01*
X0311470Y0112847D01*
X0311483Y0112761D01*
X0311492Y0112674D01*
X0311498Y0112587D01*
X0311500Y0112500D01*
X0311500Y0099500D01*
X0311498Y0099413D01*
X0311492Y0099326D01*
X0311483Y0099239D01*
X0311470Y0099153D01*
X0311453Y0099067D01*
X0311432Y0098982D01*
X0311407Y0098899D01*
X0311379Y0098816D01*
X0311348Y0098735D01*
X0311313Y0098655D01*
X0311274Y0098577D01*
X0311232Y0098500D01*
X0311187Y0098425D01*
X0311138Y0098353D01*
X0311087Y0098282D01*
X0311032Y0098214D01*
X0310975Y0098149D01*
X0310914Y0098086D01*
X0310851Y0098025D01*
X0310786Y0097968D01*
X0310718Y0097913D01*
X0310647Y0097862D01*
X0310575Y0097813D01*
X0310500Y0097768D01*
X0310423Y0097726D01*
X0310345Y0097687D01*
X0310265Y0097652D01*
X0310184Y0097621D01*
X0310101Y0097593D01*
X0310018Y0097568D01*
X0309933Y0097547D01*
X0309847Y0097530D01*
X0309761Y0097517D01*
X0309674Y0097508D01*
X0309587Y0097502D01*
X0309500Y0097500D01*
X0304500Y0097500D01*
X0304413Y0097502D01*
X0304326Y0097508D01*
X0304239Y0097517D01*
X0304153Y0097530D01*
X0304067Y0097547D01*
X0303982Y0097568D01*
X0303899Y0097593D01*
X0303816Y0097621D01*
X0303735Y0097652D01*
X0303655Y0097687D01*
X0303577Y0097726D01*
X0303500Y0097768D01*
X0303425Y0097813D01*
X0303353Y0097862D01*
X0303282Y0097913D01*
X0303214Y0097968D01*
X0303149Y0098025D01*
X0303086Y0098086D01*
X0303025Y0098149D01*
X0302968Y0098214D01*
X0302913Y0098282D01*
X0302862Y0098353D01*
X0302813Y0098425D01*
X0302768Y0098500D01*
X0302726Y0098577D01*
X0302687Y0098655D01*
X0302652Y0098735D01*
X0302621Y0098816D01*
X0302593Y0098899D01*
X0302568Y0098982D01*
X0302547Y0099067D01*
X0302530Y0099153D01*
X0302517Y0099239D01*
X0302508Y0099326D01*
X0302502Y0099413D01*
X0302500Y0099500D01*
D17*
X0304000Y0104700D02*
X0310000Y0104700D01*
X0310000Y0107200D02*
X0304000Y0107200D01*
D18*
X0301254Y0106294D02*
X0301254Y0104793D01*
X0300503Y0104042D01*
X0297501Y0104042D01*
X0296750Y0104793D01*
X0296750Y0106294D01*
X0297501Y0107045D01*
X0296750Y0108646D02*
X0296750Y0111649D01*
X0296750Y0110147D02*
X0301254Y0110147D01*
X0299753Y0108646D01*
X0300503Y0107045D02*
X0301254Y0106294D01*
M02*
