%
M48
M72
T01C0.03200
T02C0.03937
T03C0.04000
T04C0.04400
%
T01
X137000Y91000
X182000Y91000
X227000Y91000
X272000Y91000
X307000Y86000
X307000Y76000
X307000Y101000
X307000Y111000
X272000Y121000
X297000Y136000
X297000Y166000
X227000Y121000
X182000Y121000
X137000Y121000
T02
X52000Y11000
X52000Y21000
X52000Y31000
X52000Y41000
X52000Y56000
X52000Y66000
X52000Y76000
X52000Y86000
X52000Y101000
X52000Y111000
X52000Y121000
X52000Y131000
X52000Y146000
X52000Y156000
X52000Y166000
X52000Y176000
X52000Y191000
X52000Y201000
X52000Y211000
X52000Y221000
X121000Y206000
X131000Y206000
X141000Y206000
X151000Y206000
X161000Y206000
X171000Y206000
X181000Y206000
X191000Y206000
X207000Y206000
X217000Y206000
X227000Y206000
X237000Y206000
X247000Y206000
X257000Y206000
X267000Y206000
X277000Y206000
X277000Y166000
X267000Y166000
X247000Y166000
X237000Y166000
X227000Y166000
X217000Y166000
X207000Y116000
X197000Y116000
X162000Y116000
X152000Y116000
X242000Y116000
X252000Y116000
X287000Y116000
X297000Y116000
X287000Y46000
X277000Y46000
X267000Y46000
X247000Y46000
X237000Y46000
X227000Y46000
X207000Y46000
X197000Y46000
X187000Y46000
X167000Y46000
X157000Y46000
X147000Y46000
X157000Y16000
X167000Y16000
X177000Y16000
X187000Y16000
X197000Y16000
X207000Y16000
X227000Y16000
X237000Y16000
X247000Y16000
X257000Y16000
X267000Y16000
X277000Y16000
T03
X307000Y141000
X102000Y206000
T04
X112000Y206000
M30
