G04 EAGLE Gerber RS-274X export*
G75*
%MOMM*%
%FSLAX34Y34*%
%LPD*%
%INMechanical*%
%IPPOS*%
%AMOC8*
5,1,8,0,0,1.08239X$1,22.5*%
G01*
%ADD10C,0.000000*%
%ADD11C,0.254000*%


D10*
X0Y0D02*
X1000000Y0D01*
X1000000Y500000D01*
X0Y500000D01*
X0Y0D01*
X42500Y450000D02*
X42505Y450429D01*
X42521Y450859D01*
X42547Y451287D01*
X42584Y451715D01*
X42632Y452142D01*
X42689Y452568D01*
X42758Y452992D01*
X42836Y453414D01*
X42925Y453834D01*
X43024Y454252D01*
X43134Y454667D01*
X43254Y455080D01*
X43383Y455489D01*
X43523Y455896D01*
X43673Y456298D01*
X43832Y456697D01*
X44001Y457092D01*
X44180Y457482D01*
X44369Y457868D01*
X44566Y458249D01*
X44773Y458626D01*
X44990Y458997D01*
X45215Y459362D01*
X45449Y459722D01*
X45692Y460077D01*
X45944Y460425D01*
X46204Y460767D01*
X46472Y461102D01*
X46749Y461431D01*
X47033Y461752D01*
X47326Y462067D01*
X47626Y462374D01*
X47933Y462674D01*
X48248Y462967D01*
X48569Y463251D01*
X48898Y463528D01*
X49233Y463796D01*
X49575Y464056D01*
X49923Y464308D01*
X50278Y464551D01*
X50638Y464785D01*
X51003Y465010D01*
X51374Y465227D01*
X51751Y465434D01*
X52132Y465631D01*
X52518Y465820D01*
X52908Y465999D01*
X53303Y466168D01*
X53702Y466327D01*
X54104Y466477D01*
X54511Y466617D01*
X54920Y466746D01*
X55333Y466866D01*
X55748Y466976D01*
X56166Y467075D01*
X56586Y467164D01*
X57008Y467242D01*
X57432Y467311D01*
X57858Y467368D01*
X58285Y467416D01*
X58713Y467453D01*
X59141Y467479D01*
X59571Y467495D01*
X60000Y467500D01*
X60429Y467495D01*
X60859Y467479D01*
X61287Y467453D01*
X61715Y467416D01*
X62142Y467368D01*
X62568Y467311D01*
X62992Y467242D01*
X63414Y467164D01*
X63834Y467075D01*
X64252Y466976D01*
X64667Y466866D01*
X65080Y466746D01*
X65489Y466617D01*
X65896Y466477D01*
X66298Y466327D01*
X66697Y466168D01*
X67092Y465999D01*
X67482Y465820D01*
X67868Y465631D01*
X68249Y465434D01*
X68626Y465227D01*
X68997Y465010D01*
X69362Y464785D01*
X69722Y464551D01*
X70077Y464308D01*
X70425Y464056D01*
X70767Y463796D01*
X71102Y463528D01*
X71431Y463251D01*
X71752Y462967D01*
X72067Y462674D01*
X72374Y462374D01*
X72674Y462067D01*
X72967Y461752D01*
X73251Y461431D01*
X73528Y461102D01*
X73796Y460767D01*
X74056Y460425D01*
X74308Y460077D01*
X74551Y459722D01*
X74785Y459362D01*
X75010Y458997D01*
X75227Y458626D01*
X75434Y458249D01*
X75631Y457868D01*
X75820Y457482D01*
X75999Y457092D01*
X76168Y456697D01*
X76327Y456298D01*
X76477Y455896D01*
X76617Y455489D01*
X76746Y455080D01*
X76866Y454667D01*
X76976Y454252D01*
X77075Y453834D01*
X77164Y453414D01*
X77242Y452992D01*
X77311Y452568D01*
X77368Y452142D01*
X77416Y451715D01*
X77453Y451287D01*
X77479Y450859D01*
X77495Y450429D01*
X77500Y450000D01*
X77495Y449571D01*
X77479Y449141D01*
X77453Y448713D01*
X77416Y448285D01*
X77368Y447858D01*
X77311Y447432D01*
X77242Y447008D01*
X77164Y446586D01*
X77075Y446166D01*
X76976Y445748D01*
X76866Y445333D01*
X76746Y444920D01*
X76617Y444511D01*
X76477Y444104D01*
X76327Y443702D01*
X76168Y443303D01*
X75999Y442908D01*
X75820Y442518D01*
X75631Y442132D01*
X75434Y441751D01*
X75227Y441374D01*
X75010Y441003D01*
X74785Y440638D01*
X74551Y440278D01*
X74308Y439923D01*
X74056Y439575D01*
X73796Y439233D01*
X73528Y438898D01*
X73251Y438569D01*
X72967Y438248D01*
X72674Y437933D01*
X72374Y437626D01*
X72067Y437326D01*
X71752Y437033D01*
X71431Y436749D01*
X71102Y436472D01*
X70767Y436204D01*
X70425Y435944D01*
X70077Y435692D01*
X69722Y435449D01*
X69362Y435215D01*
X68997Y434990D01*
X68626Y434773D01*
X68249Y434566D01*
X67868Y434369D01*
X67482Y434180D01*
X67092Y434001D01*
X66697Y433832D01*
X66298Y433673D01*
X65896Y433523D01*
X65489Y433383D01*
X65080Y433254D01*
X64667Y433134D01*
X64252Y433024D01*
X63834Y432925D01*
X63414Y432836D01*
X62992Y432758D01*
X62568Y432689D01*
X62142Y432632D01*
X61715Y432584D01*
X61287Y432547D01*
X60859Y432521D01*
X60429Y432505D01*
X60000Y432500D01*
X59571Y432505D01*
X59141Y432521D01*
X58713Y432547D01*
X58285Y432584D01*
X57858Y432632D01*
X57432Y432689D01*
X57008Y432758D01*
X56586Y432836D01*
X56166Y432925D01*
X55748Y433024D01*
X55333Y433134D01*
X54920Y433254D01*
X54511Y433383D01*
X54104Y433523D01*
X53702Y433673D01*
X53303Y433832D01*
X52908Y434001D01*
X52518Y434180D01*
X52132Y434369D01*
X51751Y434566D01*
X51374Y434773D01*
X51003Y434990D01*
X50638Y435215D01*
X50278Y435449D01*
X49923Y435692D01*
X49575Y435944D01*
X49233Y436204D01*
X48898Y436472D01*
X48569Y436749D01*
X48248Y437033D01*
X47933Y437326D01*
X47626Y437626D01*
X47326Y437933D01*
X47033Y438248D01*
X46749Y438569D01*
X46472Y438898D01*
X46204Y439233D01*
X45944Y439575D01*
X45692Y439923D01*
X45449Y440278D01*
X45215Y440638D01*
X44990Y441003D01*
X44773Y441374D01*
X44566Y441751D01*
X44369Y442132D01*
X44180Y442518D01*
X44001Y442908D01*
X43832Y443303D01*
X43673Y443702D01*
X43523Y444104D01*
X43383Y444511D01*
X43254Y444920D01*
X43134Y445333D01*
X43024Y445748D01*
X42925Y446166D01*
X42836Y446586D01*
X42758Y447008D01*
X42689Y447432D01*
X42632Y447858D01*
X42584Y448285D01*
X42547Y448713D01*
X42521Y449141D01*
X42505Y449571D01*
X42500Y450000D01*
X442500Y450000D02*
X442505Y450429D01*
X442521Y450859D01*
X442547Y451287D01*
X442584Y451715D01*
X442632Y452142D01*
X442689Y452568D01*
X442758Y452992D01*
X442836Y453414D01*
X442925Y453834D01*
X443024Y454252D01*
X443134Y454667D01*
X443254Y455080D01*
X443383Y455489D01*
X443523Y455896D01*
X443673Y456298D01*
X443832Y456697D01*
X444001Y457092D01*
X444180Y457482D01*
X444369Y457868D01*
X444566Y458249D01*
X444773Y458626D01*
X444990Y458997D01*
X445215Y459362D01*
X445449Y459722D01*
X445692Y460077D01*
X445944Y460425D01*
X446204Y460767D01*
X446472Y461102D01*
X446749Y461431D01*
X447033Y461752D01*
X447326Y462067D01*
X447626Y462374D01*
X447933Y462674D01*
X448248Y462967D01*
X448569Y463251D01*
X448898Y463528D01*
X449233Y463796D01*
X449575Y464056D01*
X449923Y464308D01*
X450278Y464551D01*
X450638Y464785D01*
X451003Y465010D01*
X451374Y465227D01*
X451751Y465434D01*
X452132Y465631D01*
X452518Y465820D01*
X452908Y465999D01*
X453303Y466168D01*
X453702Y466327D01*
X454104Y466477D01*
X454511Y466617D01*
X454920Y466746D01*
X455333Y466866D01*
X455748Y466976D01*
X456166Y467075D01*
X456586Y467164D01*
X457008Y467242D01*
X457432Y467311D01*
X457858Y467368D01*
X458285Y467416D01*
X458713Y467453D01*
X459141Y467479D01*
X459571Y467495D01*
X460000Y467500D01*
X460429Y467495D01*
X460859Y467479D01*
X461287Y467453D01*
X461715Y467416D01*
X462142Y467368D01*
X462568Y467311D01*
X462992Y467242D01*
X463414Y467164D01*
X463834Y467075D01*
X464252Y466976D01*
X464667Y466866D01*
X465080Y466746D01*
X465489Y466617D01*
X465896Y466477D01*
X466298Y466327D01*
X466697Y466168D01*
X467092Y465999D01*
X467482Y465820D01*
X467868Y465631D01*
X468249Y465434D01*
X468626Y465227D01*
X468997Y465010D01*
X469362Y464785D01*
X469722Y464551D01*
X470077Y464308D01*
X470425Y464056D01*
X470767Y463796D01*
X471102Y463528D01*
X471431Y463251D01*
X471752Y462967D01*
X472067Y462674D01*
X472374Y462374D01*
X472674Y462067D01*
X472967Y461752D01*
X473251Y461431D01*
X473528Y461102D01*
X473796Y460767D01*
X474056Y460425D01*
X474308Y460077D01*
X474551Y459722D01*
X474785Y459362D01*
X475010Y458997D01*
X475227Y458626D01*
X475434Y458249D01*
X475631Y457868D01*
X475820Y457482D01*
X475999Y457092D01*
X476168Y456697D01*
X476327Y456298D01*
X476477Y455896D01*
X476617Y455489D01*
X476746Y455080D01*
X476866Y454667D01*
X476976Y454252D01*
X477075Y453834D01*
X477164Y453414D01*
X477242Y452992D01*
X477311Y452568D01*
X477368Y452142D01*
X477416Y451715D01*
X477453Y451287D01*
X477479Y450859D01*
X477495Y450429D01*
X477500Y450000D01*
X477495Y449571D01*
X477479Y449141D01*
X477453Y448713D01*
X477416Y448285D01*
X477368Y447858D01*
X477311Y447432D01*
X477242Y447008D01*
X477164Y446586D01*
X477075Y446166D01*
X476976Y445748D01*
X476866Y445333D01*
X476746Y444920D01*
X476617Y444511D01*
X476477Y444104D01*
X476327Y443702D01*
X476168Y443303D01*
X475999Y442908D01*
X475820Y442518D01*
X475631Y442132D01*
X475434Y441751D01*
X475227Y441374D01*
X475010Y441003D01*
X474785Y440638D01*
X474551Y440278D01*
X474308Y439923D01*
X474056Y439575D01*
X473796Y439233D01*
X473528Y438898D01*
X473251Y438569D01*
X472967Y438248D01*
X472674Y437933D01*
X472374Y437626D01*
X472067Y437326D01*
X471752Y437033D01*
X471431Y436749D01*
X471102Y436472D01*
X470767Y436204D01*
X470425Y435944D01*
X470077Y435692D01*
X469722Y435449D01*
X469362Y435215D01*
X468997Y434990D01*
X468626Y434773D01*
X468249Y434566D01*
X467868Y434369D01*
X467482Y434180D01*
X467092Y434001D01*
X466697Y433832D01*
X466298Y433673D01*
X465896Y433523D01*
X465489Y433383D01*
X465080Y433254D01*
X464667Y433134D01*
X464252Y433024D01*
X463834Y432925D01*
X463414Y432836D01*
X462992Y432758D01*
X462568Y432689D01*
X462142Y432632D01*
X461715Y432584D01*
X461287Y432547D01*
X460859Y432521D01*
X460429Y432505D01*
X460000Y432500D01*
X459571Y432505D01*
X459141Y432521D01*
X458713Y432547D01*
X458285Y432584D01*
X457858Y432632D01*
X457432Y432689D01*
X457008Y432758D01*
X456586Y432836D01*
X456166Y432925D01*
X455748Y433024D01*
X455333Y433134D01*
X454920Y433254D01*
X454511Y433383D01*
X454104Y433523D01*
X453702Y433673D01*
X453303Y433832D01*
X452908Y434001D01*
X452518Y434180D01*
X452132Y434369D01*
X451751Y434566D01*
X451374Y434773D01*
X451003Y434990D01*
X450638Y435215D01*
X450278Y435449D01*
X449923Y435692D01*
X449575Y435944D01*
X449233Y436204D01*
X448898Y436472D01*
X448569Y436749D01*
X448248Y437033D01*
X447933Y437326D01*
X447626Y437626D01*
X447326Y437933D01*
X447033Y438248D01*
X446749Y438569D01*
X446472Y438898D01*
X446204Y439233D01*
X445944Y439575D01*
X445692Y439923D01*
X445449Y440278D01*
X445215Y440638D01*
X444990Y441003D01*
X444773Y441374D01*
X444566Y441751D01*
X444369Y442132D01*
X444180Y442518D01*
X444001Y442908D01*
X443832Y443303D01*
X443673Y443702D01*
X443523Y444104D01*
X443383Y444511D01*
X443254Y444920D01*
X443134Y445333D01*
X443024Y445748D01*
X442925Y446166D01*
X442836Y446586D01*
X442758Y447008D01*
X442689Y447432D01*
X442632Y447858D01*
X442584Y448285D01*
X442547Y448713D01*
X442521Y449141D01*
X442505Y449571D01*
X442500Y450000D01*
X611420Y49600D02*
X611423Y49809D01*
X611430Y50017D01*
X611443Y50225D01*
X611461Y50433D01*
X611484Y50640D01*
X611512Y50847D01*
X611545Y51053D01*
X611583Y51258D01*
X611627Y51462D01*
X611675Y51665D01*
X611728Y51867D01*
X611786Y52067D01*
X611849Y52266D01*
X611917Y52464D01*
X611990Y52659D01*
X612067Y52853D01*
X612149Y53045D01*
X612236Y53234D01*
X612328Y53422D01*
X612424Y53607D01*
X612524Y53790D01*
X612629Y53970D01*
X612739Y54147D01*
X612853Y54322D01*
X612971Y54494D01*
X613093Y54663D01*
X613219Y54829D01*
X613349Y54992D01*
X613484Y55152D01*
X613622Y55308D01*
X613764Y55461D01*
X613910Y55610D01*
X614059Y55756D01*
X614212Y55898D01*
X614368Y56036D01*
X614528Y56171D01*
X614691Y56301D01*
X614857Y56427D01*
X615026Y56549D01*
X615198Y56667D01*
X615373Y56781D01*
X615550Y56891D01*
X615730Y56996D01*
X615913Y57096D01*
X616098Y57192D01*
X616286Y57284D01*
X616475Y57371D01*
X616667Y57453D01*
X616861Y57530D01*
X617056Y57603D01*
X617254Y57671D01*
X617453Y57734D01*
X617653Y57792D01*
X617855Y57845D01*
X618058Y57893D01*
X618262Y57937D01*
X618467Y57975D01*
X618673Y58008D01*
X618880Y58036D01*
X619087Y58059D01*
X619295Y58077D01*
X619503Y58090D01*
X619711Y58097D01*
X619920Y58100D01*
X620129Y58097D01*
X620337Y58090D01*
X620545Y58077D01*
X620753Y58059D01*
X620960Y58036D01*
X621167Y58008D01*
X621373Y57975D01*
X621578Y57937D01*
X621782Y57893D01*
X621985Y57845D01*
X622187Y57792D01*
X622387Y57734D01*
X622586Y57671D01*
X622784Y57603D01*
X622979Y57530D01*
X623173Y57453D01*
X623365Y57371D01*
X623554Y57284D01*
X623742Y57192D01*
X623927Y57096D01*
X624110Y56996D01*
X624290Y56891D01*
X624467Y56781D01*
X624642Y56667D01*
X624814Y56549D01*
X624983Y56427D01*
X625149Y56301D01*
X625312Y56171D01*
X625472Y56036D01*
X625628Y55898D01*
X625781Y55756D01*
X625930Y55610D01*
X626076Y55461D01*
X626218Y55308D01*
X626356Y55152D01*
X626491Y54992D01*
X626621Y54829D01*
X626747Y54663D01*
X626869Y54494D01*
X626987Y54322D01*
X627101Y54147D01*
X627211Y53970D01*
X627316Y53790D01*
X627416Y53607D01*
X627512Y53422D01*
X627604Y53234D01*
X627691Y53045D01*
X627773Y52853D01*
X627850Y52659D01*
X627923Y52464D01*
X627991Y52266D01*
X628054Y52067D01*
X628112Y51867D01*
X628165Y51665D01*
X628213Y51462D01*
X628257Y51258D01*
X628295Y51053D01*
X628328Y50847D01*
X628356Y50640D01*
X628379Y50433D01*
X628397Y50225D01*
X628410Y50017D01*
X628417Y49809D01*
X628420Y49600D01*
X628417Y49391D01*
X628410Y49183D01*
X628397Y48975D01*
X628379Y48767D01*
X628356Y48560D01*
X628328Y48353D01*
X628295Y48147D01*
X628257Y47942D01*
X628213Y47738D01*
X628165Y47535D01*
X628112Y47333D01*
X628054Y47133D01*
X627991Y46934D01*
X627923Y46736D01*
X627850Y46541D01*
X627773Y46347D01*
X627691Y46155D01*
X627604Y45966D01*
X627512Y45778D01*
X627416Y45593D01*
X627316Y45410D01*
X627211Y45230D01*
X627101Y45053D01*
X626987Y44878D01*
X626869Y44706D01*
X626747Y44537D01*
X626621Y44371D01*
X626491Y44208D01*
X626356Y44048D01*
X626218Y43892D01*
X626076Y43739D01*
X625930Y43590D01*
X625781Y43444D01*
X625628Y43302D01*
X625472Y43164D01*
X625312Y43029D01*
X625149Y42899D01*
X624983Y42773D01*
X624814Y42651D01*
X624642Y42533D01*
X624467Y42419D01*
X624290Y42309D01*
X624110Y42204D01*
X623927Y42104D01*
X623742Y42008D01*
X623554Y41916D01*
X623365Y41829D01*
X623173Y41747D01*
X622979Y41670D01*
X622784Y41597D01*
X622586Y41529D01*
X622387Y41466D01*
X622187Y41408D01*
X621985Y41355D01*
X621782Y41307D01*
X621578Y41263D01*
X621373Y41225D01*
X621167Y41192D01*
X620960Y41164D01*
X620753Y41141D01*
X620545Y41123D01*
X620337Y41110D01*
X620129Y41103D01*
X619920Y41100D01*
X619711Y41103D01*
X619503Y41110D01*
X619295Y41123D01*
X619087Y41141D01*
X618880Y41164D01*
X618673Y41192D01*
X618467Y41225D01*
X618262Y41263D01*
X618058Y41307D01*
X617855Y41355D01*
X617653Y41408D01*
X617453Y41466D01*
X617254Y41529D01*
X617056Y41597D01*
X616861Y41670D01*
X616667Y41747D01*
X616475Y41829D01*
X616286Y41916D01*
X616098Y42008D01*
X615913Y42104D01*
X615730Y42204D01*
X615550Y42309D01*
X615373Y42419D01*
X615198Y42533D01*
X615026Y42651D01*
X614857Y42773D01*
X614691Y42899D01*
X614528Y43029D01*
X614368Y43164D01*
X614212Y43302D01*
X614059Y43444D01*
X613910Y43590D01*
X613764Y43739D01*
X613622Y43892D01*
X613484Y44048D01*
X613349Y44208D01*
X613219Y44371D01*
X613093Y44537D01*
X612971Y44706D01*
X612853Y44878D01*
X612739Y45053D01*
X612629Y45230D01*
X612524Y45410D01*
X612424Y45593D01*
X612328Y45778D01*
X612236Y45966D01*
X612149Y46155D01*
X612067Y46347D01*
X611990Y46541D01*
X611917Y46736D01*
X611849Y46934D01*
X611786Y47133D01*
X611728Y47333D01*
X611675Y47535D01*
X611627Y47738D01*
X611583Y47942D01*
X611545Y48147D01*
X611512Y48353D01*
X611484Y48560D01*
X611461Y48767D01*
X611443Y48975D01*
X611430Y49183D01*
X611423Y49391D01*
X611420Y49600D01*
X561420Y49600D02*
X561423Y49809D01*
X561430Y50017D01*
X561443Y50225D01*
X561461Y50433D01*
X561484Y50640D01*
X561512Y50847D01*
X561545Y51053D01*
X561583Y51258D01*
X561627Y51462D01*
X561675Y51665D01*
X561728Y51867D01*
X561786Y52067D01*
X561849Y52266D01*
X561917Y52464D01*
X561990Y52659D01*
X562067Y52853D01*
X562149Y53045D01*
X562236Y53234D01*
X562328Y53422D01*
X562424Y53607D01*
X562524Y53790D01*
X562629Y53970D01*
X562739Y54147D01*
X562853Y54322D01*
X562971Y54494D01*
X563093Y54663D01*
X563219Y54829D01*
X563349Y54992D01*
X563484Y55152D01*
X563622Y55308D01*
X563764Y55461D01*
X563910Y55610D01*
X564059Y55756D01*
X564212Y55898D01*
X564368Y56036D01*
X564528Y56171D01*
X564691Y56301D01*
X564857Y56427D01*
X565026Y56549D01*
X565198Y56667D01*
X565373Y56781D01*
X565550Y56891D01*
X565730Y56996D01*
X565913Y57096D01*
X566098Y57192D01*
X566286Y57284D01*
X566475Y57371D01*
X566667Y57453D01*
X566861Y57530D01*
X567056Y57603D01*
X567254Y57671D01*
X567453Y57734D01*
X567653Y57792D01*
X567855Y57845D01*
X568058Y57893D01*
X568262Y57937D01*
X568467Y57975D01*
X568673Y58008D01*
X568880Y58036D01*
X569087Y58059D01*
X569295Y58077D01*
X569503Y58090D01*
X569711Y58097D01*
X569920Y58100D01*
X570129Y58097D01*
X570337Y58090D01*
X570545Y58077D01*
X570753Y58059D01*
X570960Y58036D01*
X571167Y58008D01*
X571373Y57975D01*
X571578Y57937D01*
X571782Y57893D01*
X571985Y57845D01*
X572187Y57792D01*
X572387Y57734D01*
X572586Y57671D01*
X572784Y57603D01*
X572979Y57530D01*
X573173Y57453D01*
X573365Y57371D01*
X573554Y57284D01*
X573742Y57192D01*
X573927Y57096D01*
X574110Y56996D01*
X574290Y56891D01*
X574467Y56781D01*
X574642Y56667D01*
X574814Y56549D01*
X574983Y56427D01*
X575149Y56301D01*
X575312Y56171D01*
X575472Y56036D01*
X575628Y55898D01*
X575781Y55756D01*
X575930Y55610D01*
X576076Y55461D01*
X576218Y55308D01*
X576356Y55152D01*
X576491Y54992D01*
X576621Y54829D01*
X576747Y54663D01*
X576869Y54494D01*
X576987Y54322D01*
X577101Y54147D01*
X577211Y53970D01*
X577316Y53790D01*
X577416Y53607D01*
X577512Y53422D01*
X577604Y53234D01*
X577691Y53045D01*
X577773Y52853D01*
X577850Y52659D01*
X577923Y52464D01*
X577991Y52266D01*
X578054Y52067D01*
X578112Y51867D01*
X578165Y51665D01*
X578213Y51462D01*
X578257Y51258D01*
X578295Y51053D01*
X578328Y50847D01*
X578356Y50640D01*
X578379Y50433D01*
X578397Y50225D01*
X578410Y50017D01*
X578417Y49809D01*
X578420Y49600D01*
X578417Y49391D01*
X578410Y49183D01*
X578397Y48975D01*
X578379Y48767D01*
X578356Y48560D01*
X578328Y48353D01*
X578295Y48147D01*
X578257Y47942D01*
X578213Y47738D01*
X578165Y47535D01*
X578112Y47333D01*
X578054Y47133D01*
X577991Y46934D01*
X577923Y46736D01*
X577850Y46541D01*
X577773Y46347D01*
X577691Y46155D01*
X577604Y45966D01*
X577512Y45778D01*
X577416Y45593D01*
X577316Y45410D01*
X577211Y45230D01*
X577101Y45053D01*
X576987Y44878D01*
X576869Y44706D01*
X576747Y44537D01*
X576621Y44371D01*
X576491Y44208D01*
X576356Y44048D01*
X576218Y43892D01*
X576076Y43739D01*
X575930Y43590D01*
X575781Y43444D01*
X575628Y43302D01*
X575472Y43164D01*
X575312Y43029D01*
X575149Y42899D01*
X574983Y42773D01*
X574814Y42651D01*
X574642Y42533D01*
X574467Y42419D01*
X574290Y42309D01*
X574110Y42204D01*
X573927Y42104D01*
X573742Y42008D01*
X573554Y41916D01*
X573365Y41829D01*
X573173Y41747D01*
X572979Y41670D01*
X572784Y41597D01*
X572586Y41529D01*
X572387Y41466D01*
X572187Y41408D01*
X571985Y41355D01*
X571782Y41307D01*
X571578Y41263D01*
X571373Y41225D01*
X571167Y41192D01*
X570960Y41164D01*
X570753Y41141D01*
X570545Y41123D01*
X570337Y41110D01*
X570129Y41103D01*
X569920Y41100D01*
X569711Y41103D01*
X569503Y41110D01*
X569295Y41123D01*
X569087Y41141D01*
X568880Y41164D01*
X568673Y41192D01*
X568467Y41225D01*
X568262Y41263D01*
X568058Y41307D01*
X567855Y41355D01*
X567653Y41408D01*
X567453Y41466D01*
X567254Y41529D01*
X567056Y41597D01*
X566861Y41670D01*
X566667Y41747D01*
X566475Y41829D01*
X566286Y41916D01*
X566098Y42008D01*
X565913Y42104D01*
X565730Y42204D01*
X565550Y42309D01*
X565373Y42419D01*
X565198Y42533D01*
X565026Y42651D01*
X564857Y42773D01*
X564691Y42899D01*
X564528Y43029D01*
X564368Y43164D01*
X564212Y43302D01*
X564059Y43444D01*
X563910Y43590D01*
X563764Y43739D01*
X563622Y43892D01*
X563484Y44048D01*
X563349Y44208D01*
X563219Y44371D01*
X563093Y44537D01*
X562971Y44706D01*
X562853Y44878D01*
X562739Y45053D01*
X562629Y45230D01*
X562524Y45410D01*
X562424Y45593D01*
X562328Y45778D01*
X562236Y45966D01*
X562149Y46155D01*
X562067Y46347D01*
X561990Y46541D01*
X561917Y46736D01*
X561849Y46934D01*
X561786Y47133D01*
X561728Y47333D01*
X561675Y47535D01*
X561627Y47738D01*
X561583Y47942D01*
X561545Y48147D01*
X561512Y48353D01*
X561484Y48560D01*
X561461Y48767D01*
X561443Y48975D01*
X561430Y49183D01*
X561423Y49391D01*
X561420Y49600D01*
D11*
X0Y0D02*
X1000000Y0D01*
X1000000Y500000D01*
X0Y500000D01*
X0Y0D01*
X77500Y449427D02*
X77425Y448284D01*
X77276Y447148D01*
X77052Y446024D01*
X76755Y444917D01*
X76387Y443832D01*
X75949Y442774D01*
X75442Y441746D01*
X74869Y440754D01*
X74232Y439801D01*
X73535Y438892D01*
X72779Y438031D01*
X71969Y437221D01*
X71108Y436465D01*
X70199Y435768D01*
X69246Y435131D01*
X68254Y434558D01*
X67226Y434051D01*
X66168Y433613D01*
X65083Y433245D01*
X63976Y432948D01*
X62852Y432725D01*
X61716Y432575D01*
X60573Y432500D01*
X59427Y432500D01*
X58284Y432575D01*
X57148Y432725D01*
X56024Y432948D01*
X54917Y433245D01*
X53832Y433613D01*
X52774Y434051D01*
X51746Y434558D01*
X50754Y435131D01*
X49801Y435768D01*
X48892Y436465D01*
X48031Y437221D01*
X47221Y438031D01*
X46465Y438892D01*
X45768Y439801D01*
X45131Y440754D01*
X44558Y441746D01*
X44051Y442774D01*
X43613Y443832D01*
X43245Y444917D01*
X42948Y446024D01*
X42725Y447148D01*
X42575Y448284D01*
X42500Y449427D01*
X42500Y450573D01*
X42575Y451716D01*
X42725Y452852D01*
X42948Y453976D01*
X43245Y455083D01*
X43613Y456168D01*
X44051Y457226D01*
X44558Y458254D01*
X45131Y459246D01*
X45768Y460199D01*
X46465Y461108D01*
X47221Y461969D01*
X48031Y462779D01*
X48892Y463535D01*
X49801Y464232D01*
X50754Y464869D01*
X51746Y465442D01*
X52774Y465949D01*
X53832Y466387D01*
X54917Y466755D01*
X56024Y467052D01*
X57148Y467276D01*
X58284Y467425D01*
X59427Y467500D01*
X60573Y467500D01*
X61716Y467425D01*
X62852Y467276D01*
X63976Y467052D01*
X65083Y466755D01*
X66168Y466387D01*
X67226Y465949D01*
X68254Y465442D01*
X69246Y464869D01*
X70199Y464232D01*
X71108Y463535D01*
X71969Y462779D01*
X72779Y461969D01*
X73535Y461108D01*
X74232Y460199D01*
X74869Y459246D01*
X75442Y458254D01*
X75949Y457226D01*
X76387Y456168D01*
X76755Y455083D01*
X77052Y453976D01*
X77276Y452852D01*
X77425Y451716D01*
X77500Y450573D01*
X77500Y449427D01*
X477500Y449427D02*
X477425Y448284D01*
X477276Y447148D01*
X477052Y446024D01*
X476755Y444917D01*
X476387Y443832D01*
X475949Y442774D01*
X475442Y441746D01*
X474869Y440754D01*
X474232Y439801D01*
X473535Y438892D01*
X472779Y438031D01*
X471969Y437221D01*
X471108Y436465D01*
X470199Y435768D01*
X469246Y435131D01*
X468254Y434558D01*
X467226Y434051D01*
X466168Y433613D01*
X465083Y433245D01*
X463976Y432948D01*
X462852Y432725D01*
X461716Y432575D01*
X460573Y432500D01*
X459427Y432500D01*
X458284Y432575D01*
X457148Y432725D01*
X456024Y432948D01*
X454917Y433245D01*
X453832Y433613D01*
X452774Y434051D01*
X451746Y434558D01*
X450754Y435131D01*
X449801Y435768D01*
X448892Y436465D01*
X448031Y437221D01*
X447221Y438031D01*
X446465Y438892D01*
X445768Y439801D01*
X445131Y440754D01*
X444558Y441746D01*
X444051Y442774D01*
X443613Y443832D01*
X443245Y444917D01*
X442948Y446024D01*
X442725Y447148D01*
X442575Y448284D01*
X442500Y449427D01*
X442500Y450573D01*
X442575Y451716D01*
X442725Y452852D01*
X442948Y453976D01*
X443245Y455083D01*
X443613Y456168D01*
X444051Y457226D01*
X444558Y458254D01*
X445131Y459246D01*
X445768Y460199D01*
X446465Y461108D01*
X447221Y461969D01*
X448031Y462779D01*
X448892Y463535D01*
X449801Y464232D01*
X450754Y464869D01*
X451746Y465442D01*
X452774Y465949D01*
X453832Y466387D01*
X454917Y466755D01*
X456024Y467052D01*
X457148Y467276D01*
X458284Y467425D01*
X459427Y467500D01*
X460573Y467500D01*
X461716Y467425D01*
X462852Y467276D01*
X463976Y467052D01*
X465083Y466755D01*
X466168Y466387D01*
X467226Y465949D01*
X468254Y465442D01*
X469246Y464869D01*
X470199Y464232D01*
X471108Y463535D01*
X471969Y462779D01*
X472779Y461969D01*
X473535Y461108D01*
X474232Y460199D01*
X474869Y459246D01*
X475442Y458254D01*
X475949Y457226D01*
X476387Y456168D01*
X476755Y455083D01*
X477052Y453976D01*
X477276Y452852D01*
X477425Y451716D01*
X477500Y450573D01*
X477500Y449427D01*
X611420Y49971D02*
X611485Y50711D01*
X611614Y51442D01*
X611806Y52158D01*
X612060Y52856D01*
X612373Y53529D01*
X612744Y54171D01*
X613170Y54779D01*
X613647Y55348D01*
X614172Y55873D01*
X614741Y56350D01*
X615349Y56776D01*
X615991Y57147D01*
X616664Y57460D01*
X617362Y57714D01*
X618079Y57906D01*
X618809Y58035D01*
X619549Y58100D01*
X620291Y58100D01*
X621031Y58035D01*
X621762Y57906D01*
X622478Y57714D01*
X623176Y57460D01*
X623849Y57147D01*
X624491Y56776D01*
X625099Y56350D01*
X625668Y55873D01*
X626193Y55348D01*
X626670Y54779D01*
X627096Y54171D01*
X627467Y53529D01*
X627780Y52856D01*
X628034Y52158D01*
X628226Y51442D01*
X628355Y50711D01*
X628420Y49971D01*
X628420Y49229D01*
X628355Y48489D01*
X628226Y47759D01*
X628034Y47042D01*
X627780Y46344D01*
X627467Y45671D01*
X627096Y45029D01*
X626670Y44421D01*
X626193Y43852D01*
X625668Y43327D01*
X625099Y42850D01*
X624491Y42424D01*
X623849Y42053D01*
X623176Y41740D01*
X622478Y41486D01*
X621762Y41294D01*
X621031Y41165D01*
X620291Y41100D01*
X619549Y41100D01*
X618809Y41165D01*
X618079Y41294D01*
X617362Y41486D01*
X616664Y41740D01*
X615991Y42053D01*
X615349Y42424D01*
X614741Y42850D01*
X614172Y43327D01*
X613647Y43852D01*
X613170Y44421D01*
X612744Y45029D01*
X612373Y45671D01*
X612060Y46344D01*
X611806Y47042D01*
X611614Y47759D01*
X611485Y48489D01*
X611420Y49229D01*
X611420Y49971D01*
X561420Y49971D02*
X561485Y50711D01*
X561614Y51442D01*
X561806Y52158D01*
X562060Y52856D01*
X562373Y53529D01*
X562744Y54171D01*
X563170Y54779D01*
X563647Y55348D01*
X564172Y55873D01*
X564741Y56350D01*
X565349Y56776D01*
X565991Y57147D01*
X566664Y57460D01*
X567362Y57714D01*
X568079Y57906D01*
X568809Y58035D01*
X569549Y58100D01*
X570291Y58100D01*
X571031Y58035D01*
X571762Y57906D01*
X572478Y57714D01*
X573176Y57460D01*
X573849Y57147D01*
X574491Y56776D01*
X575099Y56350D01*
X575668Y55873D01*
X576193Y55348D01*
X576670Y54779D01*
X577096Y54171D01*
X577467Y53529D01*
X577780Y52856D01*
X578034Y52158D01*
X578226Y51442D01*
X578355Y50711D01*
X578420Y49971D01*
X578420Y49229D01*
X578355Y48489D01*
X578226Y47759D01*
X578034Y47042D01*
X577780Y46344D01*
X577467Y45671D01*
X577096Y45029D01*
X576670Y44421D01*
X576193Y43852D01*
X575668Y43327D01*
X575099Y42850D01*
X574491Y42424D01*
X573849Y42053D01*
X573176Y41740D01*
X572478Y41486D01*
X571762Y41294D01*
X571031Y41165D01*
X570291Y41100D01*
X569549Y41100D01*
X568809Y41165D01*
X568079Y41294D01*
X567362Y41486D01*
X566664Y41740D01*
X565991Y42053D01*
X565349Y42424D01*
X564741Y42850D01*
X564172Y43327D01*
X563647Y43852D01*
X563170Y44421D01*
X562744Y45029D01*
X562373Y45671D01*
X562060Y46344D01*
X561806Y47042D01*
X561614Y47759D01*
X561485Y48489D01*
X561420Y49229D01*
X561420Y49971D01*
M02*
