G04 EAGLE Gerber RS-274X export*
G75*
%MOMM*%
%FSLAX34Y34*%
%LPD*%
%INTop Paste*%
%IPPOS*%
%AMOC8*
5,1,8,0,0,1.08239X$1,22.5*%
G01*
%ADD10C,0.222250*%
%ADD11R,3.302000X1.270000*%
%ADD12R,1.066800X2.184400*%
%ADD13C,0.254000*%
%ADD14R,0.500000X1.500000*%
%ADD15R,1.500000X0.500000*%
%ADD16R,1.000000X0.350000*%
%ADD17R,3.000000X5.000000*%
%ADD18R,1.600000X1.500000*%
%ADD19R,1.200000X1.200000*%
%ADD20R,1.524000X2.540000*%
%ADD21R,3.500000X1.400000*%


D10*
X327184Y290354D02*
X327184Y283686D01*
X320516Y283686D01*
X320516Y290354D01*
X327184Y290354D01*
X327184Y285798D02*
X320516Y285798D01*
X320516Y287910D02*
X327184Y287910D01*
X327184Y290022D02*
X320516Y290022D01*
X327184Y298926D02*
X327184Y305594D01*
X327184Y298926D02*
X320516Y298926D01*
X320516Y305594D01*
X327184Y305594D01*
X327184Y301038D02*
X320516Y301038D01*
X320516Y303150D02*
X327184Y303150D01*
X327184Y305262D02*
X320516Y305262D01*
D11*
X115570Y185420D03*
X64770Y185420D03*
D12*
X457200Y147640D03*
X457200Y111440D03*
D10*
X144304Y354806D02*
X137636Y354806D01*
X137636Y361474D01*
X144304Y361474D01*
X144304Y354806D01*
X144304Y356918D02*
X137636Y356918D01*
X137636Y359030D02*
X144304Y359030D01*
X144304Y361142D02*
X137636Y361142D01*
X152876Y354806D02*
X159544Y354806D01*
X152876Y354806D02*
X152876Y361474D01*
X159544Y361474D01*
X159544Y354806D01*
X159544Y356918D02*
X152876Y356918D01*
X152876Y359030D02*
X159544Y359030D01*
X159544Y361142D02*
X152876Y361142D01*
X144304Y338296D02*
X137636Y338296D01*
X137636Y344964D01*
X144304Y344964D01*
X144304Y338296D01*
X144304Y340408D02*
X137636Y340408D01*
X137636Y342520D02*
X144304Y342520D01*
X144304Y344632D02*
X137636Y344632D01*
X152876Y338296D02*
X159544Y338296D01*
X152876Y338296D02*
X152876Y344964D01*
X159544Y344964D01*
X159544Y338296D01*
X159544Y340408D02*
X152876Y340408D01*
X152876Y342520D02*
X159544Y342520D01*
X159544Y344632D02*
X152876Y344632D01*
X327184Y338614D02*
X327184Y331946D01*
X320516Y331946D01*
X320516Y338614D01*
X327184Y338614D01*
X327184Y334058D02*
X320516Y334058D01*
X320516Y336170D02*
X327184Y336170D01*
X327184Y338282D02*
X320516Y338282D01*
X327184Y347186D02*
X327184Y353854D01*
X327184Y347186D02*
X320516Y347186D01*
X320516Y353854D01*
X327184Y353854D01*
X327184Y349298D02*
X320516Y349298D01*
X320516Y351410D02*
X327184Y351410D01*
X327184Y353522D02*
X320516Y353522D01*
X121126Y343694D02*
X121126Y337026D01*
X121126Y343694D02*
X127794Y343694D01*
X127794Y337026D01*
X121126Y337026D01*
X121126Y339138D02*
X127794Y339138D01*
X127794Y341250D02*
X121126Y341250D01*
X121126Y343362D02*
X127794Y343362D01*
X121126Y328454D02*
X121126Y321786D01*
X121126Y328454D02*
X127794Y328454D01*
X127794Y321786D01*
X121126Y321786D01*
X121126Y323898D02*
X127794Y323898D01*
X127794Y326010D02*
X121126Y326010D01*
X121126Y328122D02*
X127794Y328122D01*
X211296Y204946D02*
X217964Y204946D01*
X211296Y204946D02*
X211296Y211614D01*
X217964Y211614D01*
X217964Y204946D01*
X217964Y207058D02*
X211296Y207058D01*
X211296Y209170D02*
X217964Y209170D01*
X217964Y211282D02*
X211296Y211282D01*
X226536Y204946D02*
X233204Y204946D01*
X226536Y204946D02*
X226536Y211614D01*
X233204Y211614D01*
X233204Y204946D01*
X233204Y207058D02*
X226536Y207058D01*
X226536Y209170D02*
X233204Y209170D01*
X233204Y211282D02*
X226536Y211282D01*
X131604Y218916D02*
X131604Y225584D01*
X131604Y218916D02*
X124936Y218916D01*
X124936Y225584D01*
X131604Y225584D01*
X131604Y221028D02*
X124936Y221028D01*
X124936Y223140D02*
X131604Y223140D01*
X131604Y225252D02*
X124936Y225252D01*
X131604Y234156D02*
X131604Y240824D01*
X131604Y234156D02*
X124936Y234156D01*
X124936Y240824D01*
X131604Y240824D01*
X131604Y236268D02*
X124936Y236268D01*
X124936Y238380D02*
X131604Y238380D01*
X131604Y240492D02*
X124936Y240492D01*
X426244Y66834D02*
X426244Y60166D01*
X419576Y60166D01*
X419576Y66834D01*
X426244Y66834D01*
X426244Y62278D02*
X419576Y62278D01*
X419576Y64390D02*
X426244Y64390D01*
X426244Y66502D02*
X419576Y66502D01*
X426244Y75406D02*
X426244Y82074D01*
X426244Y75406D02*
X419576Y75406D01*
X419576Y82074D01*
X426244Y82074D01*
X426244Y77518D02*
X419576Y77518D01*
X419576Y79630D02*
X426244Y79630D01*
X426244Y81742D02*
X419576Y81742D01*
X500856Y419894D02*
X507524Y419894D01*
X507524Y413226D01*
X500856Y413226D01*
X500856Y419894D01*
X500856Y415338D02*
X507524Y415338D01*
X507524Y417450D02*
X500856Y417450D01*
X500856Y419562D02*
X507524Y419562D01*
X492284Y419894D02*
X485616Y419894D01*
X492284Y419894D02*
X492284Y413226D01*
X485616Y413226D01*
X485616Y419894D01*
X485616Y415338D02*
X492284Y415338D01*
X492284Y417450D02*
X485616Y417450D01*
X485616Y419562D02*
X492284Y419562D01*
X426244Y131604D02*
X426244Y124936D01*
X419576Y124936D01*
X419576Y131604D01*
X426244Y131604D01*
X426244Y127048D02*
X419576Y127048D01*
X419576Y129160D02*
X426244Y129160D01*
X426244Y131272D02*
X419576Y131272D01*
X426244Y140176D02*
X426244Y146844D01*
X426244Y140176D02*
X419576Y140176D01*
X419576Y146844D01*
X426244Y146844D01*
X426244Y142288D02*
X419576Y142288D01*
X419576Y144400D02*
X426244Y144400D01*
X426244Y146512D02*
X419576Y146512D01*
X399256Y358616D02*
X399256Y365284D01*
X405924Y365284D01*
X405924Y358616D01*
X399256Y358616D01*
X399256Y360728D02*
X405924Y360728D01*
X405924Y362840D02*
X399256Y362840D01*
X399256Y364952D02*
X405924Y364952D01*
X399256Y350044D02*
X399256Y343376D01*
X399256Y350044D02*
X405924Y350044D01*
X405924Y343376D01*
X399256Y343376D01*
X399256Y345488D02*
X405924Y345488D01*
X405924Y347600D02*
X399256Y347600D01*
X399256Y349712D02*
X405924Y349712D01*
X565626Y266224D02*
X572294Y266224D01*
X572294Y259556D01*
X565626Y259556D01*
X565626Y266224D01*
X565626Y261668D02*
X572294Y261668D01*
X572294Y263780D02*
X565626Y263780D01*
X565626Y265892D02*
X572294Y265892D01*
X557054Y266224D02*
X550386Y266224D01*
X557054Y266224D02*
X557054Y259556D01*
X550386Y259556D01*
X550386Y266224D01*
X550386Y261668D02*
X557054Y261668D01*
X557054Y263780D02*
X550386Y263780D01*
X550386Y265892D02*
X557054Y265892D01*
X577056Y344964D02*
X583724Y344964D01*
X583724Y338296D01*
X577056Y338296D01*
X577056Y344964D01*
X577056Y340408D02*
X583724Y340408D01*
X583724Y342520D02*
X577056Y342520D01*
X577056Y344632D02*
X583724Y344632D01*
X568484Y344964D02*
X561816Y344964D01*
X568484Y344964D02*
X568484Y338296D01*
X561816Y338296D01*
X561816Y344964D01*
X561816Y340408D02*
X568484Y340408D01*
X568484Y342520D02*
X561816Y342520D01*
X561816Y344632D02*
X568484Y344632D01*
X403384Y251936D02*
X396716Y251936D01*
X396716Y258604D01*
X403384Y258604D01*
X403384Y251936D01*
X403384Y254048D02*
X396716Y254048D01*
X396716Y256160D02*
X403384Y256160D01*
X403384Y258272D02*
X396716Y258272D01*
X411956Y251936D02*
X418624Y251936D01*
X411956Y251936D02*
X411956Y258604D01*
X418624Y258604D01*
X418624Y251936D01*
X418624Y254048D02*
X411956Y254048D01*
X411956Y256160D02*
X418624Y256160D01*
X418624Y258272D02*
X411956Y258272D01*
X470376Y419894D02*
X477044Y419894D01*
X477044Y413226D01*
X470376Y413226D01*
X470376Y419894D01*
X470376Y415338D02*
X477044Y415338D01*
X477044Y417450D02*
X470376Y417450D01*
X470376Y419562D02*
X477044Y419562D01*
X461804Y419894D02*
X455136Y419894D01*
X461804Y419894D02*
X461804Y413226D01*
X455136Y413226D01*
X455136Y419894D01*
X455136Y415338D02*
X461804Y415338D01*
X461804Y417450D02*
X455136Y417450D01*
X455136Y419562D02*
X461804Y419562D01*
D13*
X463550Y393065D02*
X455930Y393065D01*
X455930Y404495D01*
X463550Y404495D01*
X463550Y393065D01*
X463550Y395478D02*
X455930Y395478D01*
X455930Y397891D02*
X463550Y397891D01*
X463550Y400304D02*
X455930Y400304D01*
X455930Y402717D02*
X463550Y402717D01*
X473710Y393065D02*
X481330Y393065D01*
X473710Y393065D02*
X473710Y404495D01*
X481330Y404495D01*
X481330Y393065D01*
X481330Y395478D02*
X473710Y395478D01*
X473710Y397891D02*
X481330Y397891D01*
X481330Y400304D02*
X473710Y400304D01*
X473710Y402717D02*
X481330Y402717D01*
D10*
X45244Y29369D02*
X38576Y29369D01*
X45244Y29369D02*
X45244Y18891D01*
X38576Y18891D01*
X38576Y29369D01*
X38576Y21003D02*
X45244Y21003D01*
X45244Y23115D02*
X38576Y23115D01*
X38576Y25227D02*
X45244Y25227D01*
X45244Y27339D02*
X38576Y27339D01*
X27464Y29369D02*
X20796Y29369D01*
X27464Y29369D02*
X27464Y18891D01*
X20796Y18891D01*
X20796Y29369D01*
X20796Y21003D02*
X27464Y21003D01*
X27464Y23115D02*
X20796Y23115D01*
X20796Y25227D02*
X27464Y25227D01*
X27464Y27339D02*
X20796Y27339D01*
D13*
X393700Y229235D02*
X401320Y229235D01*
X393700Y229235D02*
X393700Y240665D01*
X401320Y240665D01*
X401320Y229235D01*
X401320Y231648D02*
X393700Y231648D01*
X393700Y234061D02*
X401320Y234061D01*
X401320Y236474D02*
X393700Y236474D01*
X393700Y238887D02*
X401320Y238887D01*
X411480Y229235D02*
X419100Y229235D01*
X411480Y229235D02*
X411480Y240665D01*
X419100Y240665D01*
X419100Y229235D01*
X419100Y231648D02*
X411480Y231648D01*
X411480Y234061D02*
X419100Y234061D01*
X419100Y236474D02*
X411480Y236474D01*
X411480Y238887D02*
X419100Y238887D01*
D10*
X294164Y442436D02*
X287496Y442436D01*
X287496Y449104D01*
X294164Y449104D01*
X294164Y442436D01*
X294164Y444548D02*
X287496Y444548D01*
X287496Y446660D02*
X294164Y446660D01*
X294164Y448772D02*
X287496Y448772D01*
X302736Y442436D02*
X309404Y442436D01*
X302736Y442436D02*
X302736Y449104D01*
X309404Y449104D01*
X309404Y442436D01*
X309404Y444548D02*
X302736Y444548D01*
X302736Y446660D02*
X309404Y446660D01*
X309404Y448772D02*
X302736Y448772D01*
X176054Y344964D02*
X176054Y338296D01*
X169386Y338296D01*
X169386Y344964D01*
X176054Y344964D01*
X176054Y340408D02*
X169386Y340408D01*
X169386Y342520D02*
X176054Y342520D01*
X176054Y344632D02*
X169386Y344632D01*
X176054Y353536D02*
X176054Y360204D01*
X176054Y353536D02*
X169386Y353536D01*
X169386Y360204D01*
X176054Y360204D01*
X176054Y355648D02*
X169386Y355648D01*
X169386Y357760D02*
X176054Y357760D01*
X176054Y359872D02*
X169386Y359872D01*
X753904Y154464D02*
X753904Y147796D01*
X747236Y147796D01*
X747236Y154464D01*
X753904Y154464D01*
X753904Y149908D02*
X747236Y149908D01*
X747236Y152020D02*
X753904Y152020D01*
X753904Y154132D02*
X747236Y154132D01*
X753904Y163036D02*
X753904Y169704D01*
X753904Y163036D02*
X747236Y163036D01*
X747236Y169704D01*
X753904Y169704D01*
X753904Y165148D02*
X747236Y165148D01*
X747236Y167260D02*
X753904Y167260D01*
X753904Y169372D02*
X747236Y169372D01*
X243364Y229076D02*
X243364Y235744D01*
X243364Y229076D02*
X236696Y229076D01*
X236696Y235744D01*
X243364Y235744D01*
X243364Y231188D02*
X236696Y231188D01*
X236696Y233300D02*
X243364Y233300D01*
X243364Y235412D02*
X236696Y235412D01*
X243364Y244316D02*
X243364Y250984D01*
X243364Y244316D02*
X236696Y244316D01*
X236696Y250984D01*
X243364Y250984D01*
X243364Y246428D02*
X236696Y246428D01*
X236696Y248540D02*
X243364Y248540D01*
X243364Y250652D02*
X236696Y250652D01*
X178594Y221456D02*
X171926Y221456D01*
X171926Y228124D01*
X178594Y228124D01*
X178594Y221456D01*
X178594Y223568D02*
X171926Y223568D01*
X171926Y225680D02*
X178594Y225680D01*
X178594Y227792D02*
X171926Y227792D01*
X187166Y221456D02*
X193834Y221456D01*
X187166Y221456D02*
X187166Y228124D01*
X193834Y228124D01*
X193834Y221456D01*
X193834Y223568D02*
X187166Y223568D01*
X187166Y225680D02*
X193834Y225680D01*
X193834Y227792D02*
X187166Y227792D01*
X771684Y154464D02*
X771684Y147796D01*
X765016Y147796D01*
X765016Y154464D01*
X771684Y154464D01*
X771684Y149908D02*
X765016Y149908D01*
X765016Y152020D02*
X771684Y152020D01*
X771684Y154132D02*
X765016Y154132D01*
X771684Y163036D02*
X771684Y169704D01*
X771684Y163036D02*
X765016Y163036D01*
X765016Y169704D01*
X771684Y169704D01*
X771684Y165148D02*
X765016Y165148D01*
X765016Y167260D02*
X771684Y167260D01*
X771684Y169372D02*
X765016Y169372D01*
D13*
X83820Y29845D02*
X76200Y29845D01*
X83820Y29845D02*
X83820Y18415D01*
X76200Y18415D01*
X76200Y29845D01*
X76200Y20828D02*
X83820Y20828D01*
X83820Y23241D02*
X76200Y23241D01*
X76200Y25654D02*
X83820Y25654D01*
X83820Y28067D02*
X76200Y28067D01*
X66040Y29845D02*
X58420Y29845D01*
X66040Y29845D02*
X66040Y18415D01*
X58420Y18415D01*
X58420Y29845D01*
X58420Y20828D02*
X66040Y20828D01*
X66040Y23241D02*
X58420Y23241D01*
X58420Y25654D02*
X66040Y25654D01*
X66040Y28067D02*
X58420Y28067D01*
D10*
X563086Y240824D02*
X569754Y240824D01*
X569754Y234156D01*
X563086Y234156D01*
X563086Y240824D01*
X563086Y236268D02*
X569754Y236268D01*
X569754Y238380D02*
X563086Y238380D01*
X563086Y240492D02*
X569754Y240492D01*
X554514Y240824D02*
X547846Y240824D01*
X554514Y240824D02*
X554514Y234156D01*
X547846Y234156D01*
X547846Y240824D01*
X547846Y236268D02*
X554514Y236268D01*
X554514Y238380D02*
X547846Y238380D01*
X547846Y240492D02*
X554514Y240492D01*
D14*
X522600Y372960D03*
X514600Y372960D03*
X506600Y372960D03*
X498600Y372960D03*
X490600Y372960D03*
X482600Y372960D03*
X474600Y372960D03*
X466600Y372960D03*
X458600Y372960D03*
X450600Y372960D03*
X442600Y372960D03*
D15*
X424600Y354960D03*
X424600Y346960D03*
X424600Y338960D03*
X424600Y330960D03*
X424600Y322960D03*
X424600Y314960D03*
X424600Y306960D03*
X424600Y298960D03*
X424600Y290960D03*
X424600Y282960D03*
X424600Y274960D03*
D14*
X442600Y256960D03*
X450600Y256960D03*
X458600Y256960D03*
X466600Y256960D03*
X474600Y256960D03*
X482600Y256960D03*
X490600Y256960D03*
X498600Y256960D03*
X506600Y256960D03*
X514600Y256960D03*
X522600Y256960D03*
D15*
X540600Y274960D03*
X540600Y282960D03*
X540600Y290960D03*
X540600Y298960D03*
X540600Y306960D03*
X540600Y314960D03*
X540600Y322960D03*
X540600Y330960D03*
X540600Y338960D03*
X540600Y346960D03*
X540600Y354960D03*
D16*
X146925Y325460D03*
X146925Y318960D03*
X146925Y312460D03*
X146925Y305960D03*
X146925Y299460D03*
X146925Y292960D03*
X146925Y286460D03*
X146925Y279960D03*
X146925Y273460D03*
X146925Y266960D03*
X146925Y260460D03*
X146925Y253960D03*
X146925Y247460D03*
X146925Y240960D03*
X208675Y240960D03*
X208675Y247460D03*
X208675Y253960D03*
X208675Y260460D03*
X208675Y266960D03*
X208675Y273460D03*
X208675Y279960D03*
X208675Y286460D03*
X208675Y292960D03*
X208675Y299460D03*
X208675Y305960D03*
X208675Y312460D03*
X208675Y318960D03*
X208675Y325460D03*
D17*
X177800Y283210D03*
D18*
X161530Y198120D03*
D19*
X194780Y188120D03*
X194780Y208120D03*
D20*
X974090Y450850D03*
X948690Y450850D03*
X923290Y450850D03*
X897890Y450850D03*
X897890Y283210D03*
X923290Y283210D03*
X948690Y283210D03*
X974090Y283210D03*
X974090Y214630D03*
X948690Y214630D03*
X923290Y214630D03*
X897890Y214630D03*
X897890Y46990D03*
X923290Y46990D03*
X948690Y46990D03*
X974090Y46990D03*
D10*
X841216Y404336D02*
X841216Y411004D01*
X847884Y411004D01*
X847884Y404336D01*
X841216Y404336D01*
X841216Y406448D02*
X847884Y406448D01*
X847884Y408560D02*
X841216Y408560D01*
X841216Y410672D02*
X847884Y410672D01*
X841216Y395764D02*
X841216Y389096D01*
X841216Y395764D02*
X847884Y395764D01*
X847884Y389096D01*
X841216Y389096D01*
X841216Y391208D02*
X847884Y391208D01*
X847884Y393320D02*
X841216Y393320D01*
X841216Y395432D02*
X847884Y395432D01*
D21*
X761250Y364490D03*
X826250Y364490D03*
D10*
X522764Y234156D02*
X516096Y234156D01*
X516096Y240824D01*
X522764Y240824D01*
X522764Y234156D01*
X522764Y236268D02*
X516096Y236268D01*
X516096Y238380D02*
X522764Y238380D01*
X522764Y240492D02*
X516096Y240492D01*
X531336Y234156D02*
X538004Y234156D01*
X531336Y234156D02*
X531336Y240824D01*
X538004Y240824D01*
X538004Y234156D01*
X538004Y236268D02*
X531336Y236268D01*
X531336Y238380D02*
X538004Y238380D01*
X538004Y240492D02*
X531336Y240492D01*
X462756Y224314D02*
X462756Y217646D01*
X462756Y224314D02*
X469424Y224314D01*
X469424Y217646D01*
X462756Y217646D01*
X462756Y219758D02*
X469424Y219758D01*
X469424Y221870D02*
X462756Y221870D01*
X462756Y223982D02*
X469424Y223982D01*
X462756Y209074D02*
X462756Y202406D01*
X462756Y209074D02*
X469424Y209074D01*
X469424Y202406D01*
X462756Y202406D01*
X462756Y204518D02*
X469424Y204518D01*
X469424Y206630D02*
X462756Y206630D01*
X462756Y208742D02*
X469424Y208742D01*
X480536Y217646D02*
X480536Y224314D01*
X487204Y224314D01*
X487204Y217646D01*
X480536Y217646D01*
X480536Y219758D02*
X487204Y219758D01*
X487204Y221870D02*
X480536Y221870D01*
X480536Y223982D02*
X487204Y223982D01*
X480536Y209074D02*
X480536Y202406D01*
X480536Y209074D02*
X487204Y209074D01*
X487204Y202406D01*
X480536Y202406D01*
X480536Y204518D02*
X487204Y204518D01*
X487204Y206630D02*
X480536Y206630D01*
X480536Y208742D02*
X487204Y208742D01*
X945356Y472916D02*
X952024Y472916D01*
X945356Y472916D02*
X945356Y479584D01*
X952024Y479584D01*
X952024Y472916D01*
X952024Y475028D02*
X945356Y475028D01*
X945356Y477140D02*
X952024Y477140D01*
X952024Y479252D02*
X945356Y479252D01*
X960596Y472916D02*
X967264Y472916D01*
X960596Y472916D02*
X960596Y479584D01*
X967264Y479584D01*
X967264Y472916D01*
X967264Y475028D02*
X960596Y475028D01*
X960596Y477140D02*
X967264Y477140D01*
X967264Y479252D02*
X960596Y479252D01*
X952024Y247174D02*
X945356Y247174D01*
X952024Y247174D02*
X952024Y240506D01*
X945356Y240506D01*
X945356Y247174D01*
X945356Y242618D02*
X952024Y242618D01*
X952024Y244730D02*
X945356Y244730D01*
X945356Y246842D02*
X952024Y246842D01*
X936784Y247174D02*
X930116Y247174D01*
X936784Y247174D02*
X936784Y240506D01*
X930116Y240506D01*
X930116Y247174D01*
X930116Y242618D02*
X936784Y242618D01*
X936784Y244730D02*
X930116Y244730D01*
X930116Y246842D02*
X936784Y246842D01*
M02*
