M48
;GenerationSoftware,Autodesk,EAGLE,9.5.2*%
;CreationDate,2020-04-06T23:12:32Z*%
FMAT,2
ICI,OFF
METRIC,TZ,000.000
T12C0.350
T11C0.650
T10C0.800
T9C0.813
T8C0.900
T7C0.914
T6C1.000
T5C1.118
T4C1.700
T3C2.000
T2C2.286
T1C3.500
%
G90
M71
T1
X6000Y45000
X46000Y45000
T2
X71958Y7188
X83998Y7188
T3
X56592Y12110
X62392Y12110
X56992Y8460
X61992Y8460
X59492Y2960
T4
X61992Y4960
X56992Y4960
T5
X49911Y4953
X49911Y15113
T6
X38989Y7747
X38989Y10287
X38989Y12827
T7
X79228Y9906
X76728Y9906
X76728Y11887
X79228Y11887
T8
X33020Y44450
X33020Y46990
X38100Y46990
X38100Y44450
X35560Y44450
X35560Y46990
T9
X35941Y30226
X35941Y35052
T10
X51990Y18229
X72672Y45005
X51990Y20229
X69410Y17733
X71410Y17733
X2746Y35270
X82800Y45005
X2746Y25047
X2746Y27047
X2746Y29047
X2746Y31047
X54415Y45005
X56415Y45005
X58415Y45005
X56606Y17574
X58606Y17574
X62543Y45005
X64543Y45005
X66544Y45005
X70672Y45005
X80800Y45005
X74672Y45005
X64933Y17733
X62933Y17733
X78800Y45005
X2746Y37270
T11
X12823Y27047
X12319Y25047
X13299Y29047
X12192Y31047
T12
X54229Y23114
X45466Y20574
X25400Y23241
X39116Y34671
X55372Y25146
X48895Y43053
X9525Y2540
X94869Y25527
X94869Y48641
X27813Y44577
X76835Y18161
X55880Y39370
X59055Y38354
X73914Y36449
X75057Y18161
X52641Y40450
X48260Y29210
X38481Y23495
M30