G04 EAGLE Gerber RS-274X export*
G75*
%MOMM*%
%FSLAX34Y34*%
%LPD*%
%INTop Solder Mask*%
%IPPOS*%
%AMOC8*
5,1,8,0,0,1.08239X$1,22.5*%
G01*
%ADD10C,3.601600*%
%ADD11C,0.326897*%
%ADD12R,3.403600X1.371600*%
%ADD13R,1.168400X2.286000*%
%ADD14C,0.357631*%
%ADD15C,1.778000*%
%ADD16R,1.981200X1.981200*%
%ADD17C,1.981200*%
%ADD18C,1.727200*%
%ADD19C,1.409600*%
%ADD20R,0.601600X1.601600*%
%ADD21R,1.601600X0.601600*%
%ADD22R,1.101600X0.451600*%
%ADD23R,3.101600X5.101600*%
%ADD24R,1.701600X1.601600*%
%ADD25R,1.301600X1.301600*%
%ADD26C,1.422400*%
%ADD27C,3.403600*%
%ADD28C,3.101600*%
%ADD29C,1.801600*%
%ADD30R,1.625600X2.641600*%
%ADD31R,3.601600X1.501600*%


D10*
X60000Y450000D03*
X460000Y450000D03*
D11*
X327169Y290339D02*
X327169Y283701D01*
X320531Y283701D01*
X320531Y290339D01*
X327169Y290339D01*
X327169Y286807D02*
X320531Y286807D01*
X320531Y289913D02*
X327169Y289913D01*
X327169Y298941D02*
X327169Y305579D01*
X327169Y298941D02*
X320531Y298941D01*
X320531Y305579D01*
X327169Y305579D01*
X327169Y302047D02*
X320531Y302047D01*
X320531Y305153D02*
X327169Y305153D01*
D12*
X115570Y185420D03*
X64770Y185420D03*
D13*
X457200Y147640D03*
X457200Y111440D03*
D11*
X144289Y354821D02*
X137651Y354821D01*
X137651Y361459D01*
X144289Y361459D01*
X144289Y354821D01*
X144289Y357927D02*
X137651Y357927D01*
X137651Y361033D02*
X144289Y361033D01*
X152891Y354821D02*
X159529Y354821D01*
X152891Y354821D02*
X152891Y361459D01*
X159529Y361459D01*
X159529Y354821D01*
X159529Y357927D02*
X152891Y357927D01*
X152891Y361033D02*
X159529Y361033D01*
X144289Y338311D02*
X137651Y338311D01*
X137651Y344949D01*
X144289Y344949D01*
X144289Y338311D01*
X144289Y341417D02*
X137651Y341417D01*
X137651Y344523D02*
X144289Y344523D01*
X152891Y338311D02*
X159529Y338311D01*
X152891Y338311D02*
X152891Y344949D01*
X159529Y344949D01*
X159529Y338311D01*
X159529Y341417D02*
X152891Y341417D01*
X152891Y344523D02*
X159529Y344523D01*
X327169Y338599D02*
X327169Y331961D01*
X320531Y331961D01*
X320531Y338599D01*
X327169Y338599D01*
X327169Y335067D02*
X320531Y335067D01*
X320531Y338173D02*
X327169Y338173D01*
X327169Y347201D02*
X327169Y353839D01*
X327169Y347201D02*
X320531Y347201D01*
X320531Y353839D01*
X327169Y353839D01*
X327169Y350307D02*
X320531Y350307D01*
X320531Y353413D02*
X327169Y353413D01*
X121141Y343679D02*
X121141Y337041D01*
X121141Y343679D02*
X127779Y343679D01*
X127779Y337041D01*
X121141Y337041D01*
X121141Y340147D02*
X127779Y340147D01*
X127779Y343253D02*
X121141Y343253D01*
X121141Y328439D02*
X121141Y321801D01*
X121141Y328439D02*
X127779Y328439D01*
X127779Y321801D01*
X121141Y321801D01*
X121141Y324907D02*
X127779Y324907D01*
X127779Y328013D02*
X121141Y328013D01*
X211311Y204961D02*
X217949Y204961D01*
X211311Y204961D02*
X211311Y211599D01*
X217949Y211599D01*
X217949Y204961D01*
X217949Y208067D02*
X211311Y208067D01*
X211311Y211173D02*
X217949Y211173D01*
X226551Y204961D02*
X233189Y204961D01*
X226551Y204961D02*
X226551Y211599D01*
X233189Y211599D01*
X233189Y204961D01*
X233189Y208067D02*
X226551Y208067D01*
X226551Y211173D02*
X233189Y211173D01*
X131589Y218931D02*
X131589Y225569D01*
X131589Y218931D02*
X124951Y218931D01*
X124951Y225569D01*
X131589Y225569D01*
X131589Y222037D02*
X124951Y222037D01*
X124951Y225143D02*
X131589Y225143D01*
X131589Y234171D02*
X131589Y240809D01*
X131589Y234171D02*
X124951Y234171D01*
X124951Y240809D01*
X131589Y240809D01*
X131589Y237277D02*
X124951Y237277D01*
X124951Y240383D02*
X131589Y240383D01*
X426229Y66819D02*
X426229Y60181D01*
X419591Y60181D01*
X419591Y66819D01*
X426229Y66819D01*
X426229Y63287D02*
X419591Y63287D01*
X419591Y66393D02*
X426229Y66393D01*
X426229Y75421D02*
X426229Y82059D01*
X426229Y75421D02*
X419591Y75421D01*
X419591Y82059D01*
X426229Y82059D01*
X426229Y78527D02*
X419591Y78527D01*
X419591Y81633D02*
X426229Y81633D01*
X500871Y419879D02*
X507509Y419879D01*
X507509Y413241D01*
X500871Y413241D01*
X500871Y419879D01*
X500871Y416347D02*
X507509Y416347D01*
X507509Y419453D02*
X500871Y419453D01*
X492269Y419879D02*
X485631Y419879D01*
X492269Y419879D02*
X492269Y413241D01*
X485631Y413241D01*
X485631Y419879D01*
X485631Y416347D02*
X492269Y416347D01*
X492269Y419453D02*
X485631Y419453D01*
X426229Y131589D02*
X426229Y124951D01*
X419591Y124951D01*
X419591Y131589D01*
X426229Y131589D01*
X426229Y128057D02*
X419591Y128057D01*
X419591Y131163D02*
X426229Y131163D01*
X426229Y140191D02*
X426229Y146829D01*
X426229Y140191D02*
X419591Y140191D01*
X419591Y146829D01*
X426229Y146829D01*
X426229Y143297D02*
X419591Y143297D01*
X419591Y146403D02*
X426229Y146403D01*
X399271Y358631D02*
X399271Y365269D01*
X405909Y365269D01*
X405909Y358631D01*
X399271Y358631D01*
X399271Y361737D02*
X405909Y361737D01*
X405909Y364843D02*
X399271Y364843D01*
X399271Y350029D02*
X399271Y343391D01*
X399271Y350029D02*
X405909Y350029D01*
X405909Y343391D01*
X399271Y343391D01*
X399271Y346497D02*
X405909Y346497D01*
X405909Y349603D02*
X399271Y349603D01*
X565641Y266209D02*
X572279Y266209D01*
X572279Y259571D01*
X565641Y259571D01*
X565641Y266209D01*
X565641Y262677D02*
X572279Y262677D01*
X572279Y265783D02*
X565641Y265783D01*
X557039Y266209D02*
X550401Y266209D01*
X557039Y266209D02*
X557039Y259571D01*
X550401Y259571D01*
X550401Y266209D01*
X550401Y262677D02*
X557039Y262677D01*
X557039Y265783D02*
X550401Y265783D01*
X577071Y344949D02*
X583709Y344949D01*
X583709Y338311D01*
X577071Y338311D01*
X577071Y344949D01*
X577071Y341417D02*
X583709Y341417D01*
X583709Y344523D02*
X577071Y344523D01*
X568469Y344949D02*
X561831Y344949D01*
X568469Y344949D02*
X568469Y338311D01*
X561831Y338311D01*
X561831Y344949D01*
X561831Y341417D02*
X568469Y341417D01*
X568469Y344523D02*
X561831Y344523D01*
X403369Y251951D02*
X396731Y251951D01*
X396731Y258589D01*
X403369Y258589D01*
X403369Y251951D01*
X403369Y255057D02*
X396731Y255057D01*
X396731Y258163D02*
X403369Y258163D01*
X411971Y251951D02*
X418609Y251951D01*
X411971Y251951D02*
X411971Y258589D01*
X418609Y258589D01*
X418609Y251951D01*
X418609Y255057D02*
X411971Y255057D01*
X411971Y258163D02*
X418609Y258163D01*
X470391Y419879D02*
X477029Y419879D01*
X477029Y413241D01*
X470391Y413241D01*
X470391Y419879D01*
X470391Y416347D02*
X477029Y416347D01*
X477029Y419453D02*
X470391Y419453D01*
X461789Y419879D02*
X455151Y419879D01*
X461789Y419879D02*
X461789Y413241D01*
X455151Y413241D01*
X455151Y419879D01*
X455151Y416347D02*
X461789Y416347D01*
X461789Y419453D02*
X455151Y419453D01*
D14*
X455940Y393075D02*
X463540Y393075D01*
X455940Y393075D02*
X455940Y404485D01*
X463540Y404485D01*
X463540Y393075D01*
X463540Y396472D02*
X455940Y396472D01*
X455940Y399869D02*
X463540Y399869D01*
X463540Y403266D02*
X455940Y403266D01*
X473720Y393075D02*
X481320Y393075D01*
X473720Y393075D02*
X473720Y404485D01*
X481320Y404485D01*
X481320Y393075D01*
X481320Y396472D02*
X473720Y396472D01*
X473720Y399869D02*
X481320Y399869D01*
X481320Y403266D02*
X473720Y403266D01*
D15*
X499110Y49530D03*
X499110Y151130D03*
D11*
X45229Y29354D02*
X38591Y29354D01*
X45229Y29354D02*
X45229Y18906D01*
X38591Y18906D01*
X38591Y29354D01*
X38591Y22012D02*
X45229Y22012D01*
X45229Y25118D02*
X38591Y25118D01*
X38591Y28224D02*
X45229Y28224D01*
X27449Y29354D02*
X20811Y29354D01*
X27449Y29354D02*
X27449Y18906D01*
X20811Y18906D01*
X20811Y29354D01*
X20811Y22012D02*
X27449Y22012D01*
X27449Y25118D02*
X20811Y25118D01*
X20811Y28224D02*
X27449Y28224D01*
D14*
X393710Y229245D02*
X401310Y229245D01*
X393710Y229245D02*
X393710Y240655D01*
X401310Y240655D01*
X401310Y229245D01*
X401310Y232642D02*
X393710Y232642D01*
X393710Y236039D02*
X401310Y236039D01*
X401310Y239436D02*
X393710Y239436D01*
X411490Y229245D02*
X419090Y229245D01*
X411490Y229245D02*
X411490Y240655D01*
X419090Y240655D01*
X419090Y229245D01*
X419090Y232642D02*
X411490Y232642D01*
X411490Y236039D02*
X419090Y236039D01*
X419090Y239436D02*
X411490Y239436D01*
D16*
X389890Y128270D03*
D17*
X389890Y102870D03*
X389890Y77470D03*
D18*
X355600Y469900D03*
X355600Y444500D03*
X381000Y444500D03*
X381000Y469900D03*
X330200Y469900D03*
X330200Y444500D03*
D19*
X34005Y352700D02*
X20925Y352700D01*
X20925Y372700D02*
X34005Y372700D01*
X34005Y250470D02*
X20925Y250470D01*
X20925Y270470D02*
X34005Y270470D01*
X34005Y290470D02*
X20925Y290470D01*
X20925Y310470D02*
X34005Y310470D01*
X544155Y443515D02*
X544155Y456595D01*
X564155Y456595D02*
X564155Y443515D01*
X584155Y443515D02*
X584155Y456595D01*
X566060Y182275D02*
X566060Y169195D01*
X586060Y169195D02*
X586060Y182275D01*
X625435Y443515D02*
X625435Y456595D01*
X645435Y456595D02*
X645435Y443515D01*
X665435Y443515D02*
X665435Y456595D01*
X706715Y456595D02*
X706715Y443515D01*
X726715Y443515D02*
X726715Y456595D01*
X746715Y456595D02*
X746715Y443515D01*
X649330Y183865D02*
X649330Y170785D01*
X629330Y170785D02*
X629330Y183865D01*
D11*
X294149Y442451D02*
X287511Y442451D01*
X287511Y449089D01*
X294149Y449089D01*
X294149Y442451D01*
X294149Y445557D02*
X287511Y445557D01*
X287511Y448663D02*
X294149Y448663D01*
X302751Y442451D02*
X309389Y442451D01*
X302751Y442451D02*
X302751Y449089D01*
X309389Y449089D01*
X309389Y442451D01*
X309389Y445557D02*
X302751Y445557D01*
X302751Y448663D02*
X309389Y448663D01*
X176039Y344949D02*
X176039Y338311D01*
X169401Y338311D01*
X169401Y344949D01*
X176039Y344949D01*
X176039Y341417D02*
X169401Y341417D01*
X169401Y344523D02*
X176039Y344523D01*
X176039Y353551D02*
X176039Y360189D01*
X176039Y353551D02*
X169401Y353551D01*
X169401Y360189D01*
X176039Y360189D01*
X176039Y356657D02*
X169401Y356657D01*
X169401Y359763D02*
X176039Y359763D01*
X753889Y154449D02*
X753889Y147811D01*
X747251Y147811D01*
X747251Y154449D01*
X753889Y154449D01*
X753889Y150917D02*
X747251Y150917D01*
X747251Y154023D02*
X753889Y154023D01*
X753889Y163051D02*
X753889Y169689D01*
X753889Y163051D02*
X747251Y163051D01*
X747251Y169689D01*
X753889Y169689D01*
X753889Y166157D02*
X747251Y166157D01*
X747251Y169263D02*
X753889Y169263D01*
X243349Y229091D02*
X243349Y235729D01*
X243349Y229091D02*
X236711Y229091D01*
X236711Y235729D01*
X243349Y235729D01*
X243349Y232197D02*
X236711Y232197D01*
X236711Y235303D02*
X243349Y235303D01*
X243349Y244331D02*
X243349Y250969D01*
X243349Y244331D02*
X236711Y244331D01*
X236711Y250969D01*
X243349Y250969D01*
X243349Y247437D02*
X236711Y247437D01*
X236711Y250543D02*
X243349Y250543D01*
X178579Y221471D02*
X171941Y221471D01*
X171941Y228109D01*
X178579Y228109D01*
X178579Y221471D01*
X178579Y224577D02*
X171941Y224577D01*
X171941Y227683D02*
X178579Y227683D01*
X187181Y221471D02*
X193819Y221471D01*
X187181Y221471D02*
X187181Y228109D01*
X193819Y228109D01*
X193819Y221471D01*
X193819Y224577D02*
X187181Y224577D01*
X187181Y227683D02*
X193819Y227683D01*
X771669Y154449D02*
X771669Y147811D01*
X765031Y147811D01*
X765031Y154449D01*
X771669Y154449D01*
X771669Y150917D02*
X765031Y150917D01*
X765031Y154023D02*
X771669Y154023D01*
X771669Y163051D02*
X771669Y169689D01*
X771669Y163051D02*
X765031Y163051D01*
X765031Y169689D01*
X771669Y169689D01*
X771669Y166157D02*
X765031Y166157D01*
X765031Y169263D02*
X771669Y169263D01*
D14*
X83810Y29835D02*
X76210Y29835D01*
X83810Y29835D02*
X83810Y18425D01*
X76210Y18425D01*
X76210Y29835D01*
X76210Y21822D02*
X83810Y21822D01*
X83810Y25219D02*
X76210Y25219D01*
X76210Y28616D02*
X83810Y28616D01*
X66030Y29835D02*
X58430Y29835D01*
X66030Y29835D02*
X66030Y18425D01*
X58430Y18425D01*
X58430Y29835D01*
X58430Y21822D02*
X66030Y21822D01*
X66030Y25219D02*
X58430Y25219D01*
X58430Y28616D02*
X66030Y28616D01*
D11*
X563101Y240809D02*
X569739Y240809D01*
X569739Y234171D01*
X563101Y234171D01*
X563101Y240809D01*
X563101Y237277D02*
X569739Y237277D01*
X569739Y240383D02*
X563101Y240383D01*
X554499Y240809D02*
X547861Y240809D01*
X554499Y240809D02*
X554499Y234171D01*
X547861Y234171D01*
X547861Y240809D01*
X547861Y237277D02*
X554499Y237277D01*
X554499Y240383D02*
X547861Y240383D01*
D20*
X522600Y372960D03*
X514600Y372960D03*
X506600Y372960D03*
X498600Y372960D03*
X490600Y372960D03*
X482600Y372960D03*
X474600Y372960D03*
X466600Y372960D03*
X458600Y372960D03*
X450600Y372960D03*
X442600Y372960D03*
D21*
X424600Y354960D03*
X424600Y346960D03*
X424600Y338960D03*
X424600Y330960D03*
X424600Y322960D03*
X424600Y314960D03*
X424600Y306960D03*
X424600Y298960D03*
X424600Y290960D03*
X424600Y282960D03*
X424600Y274960D03*
D20*
X442600Y256960D03*
X450600Y256960D03*
X458600Y256960D03*
X466600Y256960D03*
X474600Y256960D03*
X482600Y256960D03*
X490600Y256960D03*
X498600Y256960D03*
X506600Y256960D03*
X514600Y256960D03*
X522600Y256960D03*
D21*
X540600Y274960D03*
X540600Y282960D03*
X540600Y290960D03*
X540600Y298960D03*
X540600Y306960D03*
X540600Y314960D03*
X540600Y322960D03*
X540600Y330960D03*
X540600Y338960D03*
X540600Y346960D03*
X540600Y354960D03*
D22*
X146925Y325460D03*
X146925Y318960D03*
X146925Y312460D03*
X146925Y305960D03*
X146925Y299460D03*
X146925Y292960D03*
X146925Y286460D03*
X146925Y279960D03*
X146925Y273460D03*
X146925Y266960D03*
X146925Y260460D03*
X146925Y253960D03*
X146925Y247460D03*
X146925Y240960D03*
X208675Y240960D03*
X208675Y247460D03*
X208675Y253960D03*
X208675Y260460D03*
X208675Y266960D03*
X208675Y273460D03*
X208675Y279960D03*
X208675Y286460D03*
X208675Y292960D03*
X208675Y299460D03*
X208675Y305960D03*
X208675Y312460D03*
X208675Y318960D03*
X208675Y325460D03*
D23*
X177800Y283210D03*
D24*
X161530Y198120D03*
D25*
X194780Y188120D03*
X194780Y208120D03*
D26*
X359410Y350520D03*
X359410Y302260D03*
D15*
X792280Y118872D03*
X767280Y118872D03*
X767280Y99060D03*
X792280Y99060D03*
D27*
X839978Y71882D03*
X719582Y71882D03*
D28*
X594920Y29600D03*
D29*
X619920Y49600D03*
X569920Y49600D03*
D28*
X619920Y84600D03*
X569920Y84600D03*
X623920Y121100D03*
X565920Y121100D03*
D30*
X974090Y450850D03*
X948690Y450850D03*
X923290Y450850D03*
X897890Y450850D03*
X897890Y283210D03*
X923290Y283210D03*
X948690Y283210D03*
X974090Y283210D03*
X974090Y214630D03*
X948690Y214630D03*
X923290Y214630D03*
X897890Y214630D03*
X897890Y46990D03*
X923290Y46990D03*
X948690Y46990D03*
X974090Y46990D03*
D19*
X787995Y443515D02*
X787995Y456595D01*
X807995Y456595D02*
X807995Y443515D01*
X827995Y443515D02*
X827995Y456595D01*
X714100Y183865D02*
X714100Y170785D01*
X694100Y170785D02*
X694100Y183865D01*
D11*
X841231Y404351D02*
X841231Y410989D01*
X847869Y410989D01*
X847869Y404351D01*
X841231Y404351D01*
X841231Y407457D02*
X847869Y407457D01*
X847869Y410563D02*
X841231Y410563D01*
X841231Y395749D02*
X841231Y389111D01*
X841231Y395749D02*
X847869Y395749D01*
X847869Y389111D01*
X841231Y389111D01*
X841231Y392217D02*
X847869Y392217D01*
X847869Y395323D02*
X841231Y395323D01*
D31*
X761250Y364490D03*
X826250Y364490D03*
D19*
X526445Y202290D02*
X513365Y202290D01*
X513365Y182290D02*
X526445Y182290D01*
D11*
X522749Y234171D02*
X516111Y234171D01*
X516111Y240809D01*
X522749Y240809D01*
X522749Y234171D01*
X522749Y237277D02*
X516111Y237277D01*
X516111Y240383D02*
X522749Y240383D01*
X531351Y234171D02*
X537989Y234171D01*
X531351Y234171D02*
X531351Y240809D01*
X537989Y240809D01*
X537989Y234171D01*
X537989Y237277D02*
X531351Y237277D01*
X531351Y240383D02*
X537989Y240383D01*
X462771Y224299D02*
X462771Y217661D01*
X462771Y224299D02*
X469409Y224299D01*
X469409Y217661D01*
X462771Y217661D01*
X462771Y220767D02*
X469409Y220767D01*
X469409Y223873D02*
X462771Y223873D01*
X462771Y209059D02*
X462771Y202421D01*
X462771Y209059D02*
X469409Y209059D01*
X469409Y202421D01*
X462771Y202421D01*
X462771Y205527D02*
X469409Y205527D01*
X469409Y208633D02*
X462771Y208633D01*
X480551Y217661D02*
X480551Y224299D01*
X487189Y224299D01*
X487189Y217661D01*
X480551Y217661D01*
X480551Y220767D02*
X487189Y220767D01*
X487189Y223873D02*
X480551Y223873D01*
X480551Y209059D02*
X480551Y202421D01*
X480551Y209059D02*
X487189Y209059D01*
X487189Y202421D01*
X480551Y202421D01*
X480551Y205527D02*
X487189Y205527D01*
X487189Y208633D02*
X480551Y208633D01*
X945371Y472931D02*
X952009Y472931D01*
X945371Y472931D02*
X945371Y479569D01*
X952009Y479569D01*
X952009Y472931D01*
X952009Y476037D02*
X945371Y476037D01*
X945371Y479143D02*
X952009Y479143D01*
X960611Y472931D02*
X967249Y472931D01*
X960611Y472931D02*
X960611Y479569D01*
X967249Y479569D01*
X967249Y472931D01*
X967249Y476037D02*
X960611Y476037D01*
X960611Y479143D02*
X967249Y479143D01*
X952009Y247159D02*
X945371Y247159D01*
X952009Y247159D02*
X952009Y240521D01*
X945371Y240521D01*
X945371Y247159D01*
X945371Y243627D02*
X952009Y243627D01*
X952009Y246733D02*
X945371Y246733D01*
X936769Y247159D02*
X930131Y247159D01*
X936769Y247159D02*
X936769Y240521D01*
X930131Y240521D01*
X930131Y247159D01*
X930131Y243627D02*
X936769Y243627D01*
X936769Y246733D02*
X930131Y246733D01*
M02*
