G04 EAGLE Gerber RS-274X export*
G75*
%MOMM*%
%FSLAX34Y34*%
%LPD*%
%INBottom Copper*%
%IPPOS*%
%AMOC8*
5,1,8,0,0,1.08239X$1,22.5*%
G01*
%ADD10C,1.676400*%
%ADD11R,1.879600X1.879600*%
%ADD12C,1.879600*%
%ADD13C,1.625600*%
%ADD14C,1.308000*%
%ADD15C,1.320800*%
%ADD16C,3.302000*%
%ADD17C,3.000000*%
%ADD18C,0.654800*%
%ADD19C,0.254000*%
%ADD20C,0.975000*%
%ADD21C,1.300000*%
%ADD22C,0.203200*%

G36*
X996718Y2544D02*
X996718Y2544D01*
X996737Y2542D01*
X996839Y2564D01*
X996941Y2580D01*
X996958Y2590D01*
X996978Y2594D01*
X997067Y2647D01*
X997158Y2696D01*
X997172Y2710D01*
X997189Y2720D01*
X997256Y2799D01*
X997328Y2874D01*
X997336Y2892D01*
X997349Y2907D01*
X997388Y3003D01*
X997431Y3097D01*
X997433Y3117D01*
X997441Y3135D01*
X997459Y3302D01*
X997459Y496698D01*
X997456Y496718D01*
X997458Y496737D01*
X997436Y496839D01*
X997420Y496941D01*
X997410Y496958D01*
X997406Y496978D01*
X997353Y497067D01*
X997304Y497158D01*
X997290Y497172D01*
X997280Y497189D01*
X997201Y497256D01*
X997126Y497328D01*
X997108Y497336D01*
X997093Y497349D01*
X996997Y497388D01*
X996903Y497431D01*
X996883Y497433D01*
X996865Y497441D01*
X996698Y497459D01*
X3302Y497459D01*
X3282Y497456D01*
X3263Y497458D01*
X3161Y497436D01*
X3059Y497420D01*
X3042Y497410D01*
X3022Y497406D01*
X2933Y497353D01*
X2842Y497304D01*
X2828Y497290D01*
X2811Y497280D01*
X2744Y497201D01*
X2672Y497126D01*
X2664Y497108D01*
X2651Y497093D01*
X2612Y496997D01*
X2569Y496903D01*
X2567Y496883D01*
X2559Y496865D01*
X2541Y496698D01*
X2541Y3302D01*
X2544Y3282D01*
X2542Y3263D01*
X2564Y3161D01*
X2580Y3059D01*
X2590Y3042D01*
X2594Y3022D01*
X2647Y2933D01*
X2696Y2842D01*
X2710Y2828D01*
X2720Y2811D01*
X2799Y2744D01*
X2874Y2672D01*
X2892Y2664D01*
X2907Y2651D01*
X3003Y2612D01*
X3097Y2569D01*
X3117Y2567D01*
X3135Y2559D01*
X3302Y2541D01*
X996698Y2541D01*
X996718Y2544D01*
G37*
%LPC*%
G36*
X480612Y287301D02*
X480612Y287301D01*
X477801Y290112D01*
X477801Y292990D01*
X477787Y293080D01*
X477779Y293171D01*
X477767Y293201D01*
X477762Y293233D01*
X477719Y293314D01*
X477683Y293398D01*
X477657Y293430D01*
X477646Y293450D01*
X477623Y293473D01*
X477578Y293529D01*
X380171Y390936D01*
X380097Y390989D01*
X380027Y391049D01*
X379997Y391061D01*
X379971Y391080D01*
X379884Y391107D01*
X379799Y391141D01*
X379758Y391145D01*
X379736Y391152D01*
X379704Y391151D01*
X379632Y391159D01*
X331568Y391159D01*
X331478Y391145D01*
X331387Y391137D01*
X331357Y391125D01*
X331325Y391120D01*
X331244Y391077D01*
X331160Y391041D01*
X331128Y391015D01*
X331108Y391004D01*
X331085Y390981D01*
X331029Y390936D01*
X310252Y370159D01*
X42190Y370159D01*
X42076Y370140D01*
X41959Y370123D01*
X41954Y370121D01*
X41948Y370120D01*
X41845Y370065D01*
X41740Y370012D01*
X41736Y370007D01*
X41730Y370004D01*
X41650Y369920D01*
X41568Y369836D01*
X41564Y369830D01*
X41561Y369826D01*
X41553Y369809D01*
X41487Y369689D01*
X40842Y368132D01*
X38573Y365863D01*
X35609Y364635D01*
X19321Y364635D01*
X16357Y365863D01*
X14088Y368132D01*
X12860Y371096D01*
X12860Y374304D01*
X14088Y377268D01*
X16357Y379537D01*
X19321Y380765D01*
X35609Y380765D01*
X38573Y379537D01*
X40842Y377268D01*
X41487Y375711D01*
X41549Y375611D01*
X41609Y375511D01*
X41613Y375507D01*
X41617Y375502D01*
X41707Y375427D01*
X41796Y375351D01*
X41801Y375349D01*
X41806Y375345D01*
X41915Y375303D01*
X42024Y375259D01*
X42031Y375258D01*
X42036Y375257D01*
X42054Y375256D01*
X42190Y375241D01*
X307832Y375241D01*
X307922Y375255D01*
X308013Y375263D01*
X308043Y375275D01*
X308075Y375280D01*
X308156Y375323D01*
X308240Y375359D01*
X308272Y375385D01*
X308292Y375396D01*
X308315Y375419D01*
X308371Y375464D01*
X329148Y396241D01*
X382052Y396241D01*
X481171Y297122D01*
X481245Y297069D01*
X481315Y297009D01*
X481345Y296997D01*
X481371Y296978D01*
X481458Y296951D01*
X481543Y296917D01*
X481584Y296913D01*
X481606Y296906D01*
X481638Y296907D01*
X481710Y296899D01*
X484588Y296899D01*
X487399Y294088D01*
X487399Y290112D01*
X484588Y287301D01*
X480612Y287301D01*
G37*
%LPD*%
%LPC*%
G36*
X19321Y282405D02*
X19321Y282405D01*
X16357Y283633D01*
X14088Y285902D01*
X12860Y288866D01*
X12860Y292074D01*
X14088Y295038D01*
X16357Y297307D01*
X19321Y298535D01*
X35637Y298535D01*
X35690Y298513D01*
X35773Y298504D01*
X35805Y298497D01*
X35825Y298498D01*
X35857Y298495D01*
X134586Y298495D01*
X137536Y297273D01*
X139793Y295016D01*
X141015Y292066D01*
X141015Y288874D01*
X139793Y285924D01*
X137536Y283667D01*
X134586Y282445D01*
X35857Y282445D01*
X35793Y282435D01*
X35727Y282434D01*
X35647Y282411D01*
X35614Y282406D01*
X35614Y282405D01*
X19321Y282405D01*
G37*
%LPD*%
%LPC*%
G36*
X19321Y262405D02*
X19321Y262405D01*
X16357Y263633D01*
X14088Y265902D01*
X12860Y268866D01*
X12860Y272074D01*
X14088Y275038D01*
X16357Y277307D01*
X19321Y278535D01*
X35637Y278535D01*
X35690Y278513D01*
X35773Y278504D01*
X35805Y278497D01*
X35825Y278498D01*
X35857Y278495D01*
X129826Y278495D01*
X132776Y277273D01*
X135033Y275016D01*
X136255Y272066D01*
X136255Y268874D01*
X135033Y265924D01*
X132776Y263667D01*
X129826Y262445D01*
X35857Y262445D01*
X35793Y262435D01*
X35727Y262434D01*
X35647Y262411D01*
X35614Y262406D01*
X35614Y262405D01*
X19321Y262405D01*
G37*
%LPD*%
%LPC*%
G36*
X748582Y176811D02*
X748582Y176811D01*
X745771Y179622D01*
X745771Y182141D01*
X745757Y182231D01*
X745749Y182322D01*
X745737Y182352D01*
X745732Y182384D01*
X745689Y182464D01*
X745653Y182548D01*
X745627Y182580D01*
X745616Y182601D01*
X745593Y182623D01*
X745548Y182679D01*
X528754Y399473D01*
X528680Y399526D01*
X528611Y399586D01*
X528581Y399598D01*
X528555Y399617D01*
X528468Y399644D01*
X528383Y399678D01*
X528342Y399682D01*
X528320Y399689D01*
X528287Y399688D01*
X528216Y399696D01*
X524427Y399696D01*
X521616Y402507D01*
X521616Y406483D01*
X524427Y409294D01*
X528403Y409294D01*
X531214Y406483D01*
X531214Y405234D01*
X531216Y405218D01*
X531215Y405203D01*
X531229Y405137D01*
X531236Y405053D01*
X531248Y405023D01*
X531253Y404991D01*
X531266Y404968D01*
X531267Y404962D01*
X531283Y404935D01*
X531296Y404911D01*
X531332Y404827D01*
X531358Y404795D01*
X531369Y404774D01*
X531392Y404752D01*
X531437Y404696D01*
X749501Y186632D01*
X749575Y186579D01*
X749644Y186519D01*
X749674Y186507D01*
X749700Y186488D01*
X749787Y186461D01*
X749872Y186427D01*
X749913Y186423D01*
X749935Y186416D01*
X749968Y186417D01*
X750039Y186409D01*
X752558Y186409D01*
X755369Y183598D01*
X755369Y179622D01*
X752558Y176811D01*
X748582Y176811D01*
G37*
%LPD*%
%LPC*%
G36*
X19321Y242405D02*
X19321Y242405D01*
X16357Y243633D01*
X14088Y245902D01*
X12860Y248866D01*
X12860Y252074D01*
X14088Y255038D01*
X16357Y257307D01*
X19321Y258535D01*
X35637Y258535D01*
X35690Y258513D01*
X35773Y258504D01*
X35805Y258497D01*
X35825Y258498D01*
X35857Y258495D01*
X124786Y258495D01*
X127736Y257273D01*
X129993Y255016D01*
X131215Y252066D01*
X131215Y248874D01*
X129993Y245924D01*
X127736Y243667D01*
X124786Y242445D01*
X35857Y242445D01*
X35793Y242435D01*
X35727Y242434D01*
X35647Y242411D01*
X35614Y242406D01*
X35614Y242405D01*
X19321Y242405D01*
G37*
%LPD*%
%LPC*%
G36*
X19321Y302405D02*
X19321Y302405D01*
X16357Y303633D01*
X14088Y305902D01*
X12860Y308866D01*
X12860Y312074D01*
X14088Y315038D01*
X16357Y317307D01*
X19321Y318535D01*
X35637Y318535D01*
X35690Y318513D01*
X35773Y318504D01*
X35805Y318497D01*
X35825Y318498D01*
X35857Y318495D01*
X123516Y318495D01*
X126466Y317273D01*
X128723Y315016D01*
X129945Y312066D01*
X129945Y308874D01*
X128723Y305924D01*
X126466Y303667D01*
X123516Y302445D01*
X35857Y302445D01*
X35793Y302435D01*
X35727Y302434D01*
X35647Y302411D01*
X35614Y302406D01*
X35614Y302405D01*
X19321Y302405D01*
G37*
%LPD*%
%LPC*%
G36*
X766362Y176811D02*
X766362Y176811D01*
X763551Y179622D01*
X763551Y183598D01*
X763712Y183759D01*
X763724Y183775D01*
X763740Y183787D01*
X763796Y183875D01*
X763856Y183958D01*
X763862Y183977D01*
X763873Y183994D01*
X763898Y184095D01*
X763928Y184194D01*
X763928Y184213D01*
X763933Y184233D01*
X763925Y184336D01*
X763922Y184439D01*
X763915Y184458D01*
X763913Y184478D01*
X763873Y184573D01*
X763837Y184670D01*
X763825Y184686D01*
X763817Y184704D01*
X763712Y184835D01*
X559869Y388678D01*
X559795Y388731D01*
X559726Y388791D01*
X559696Y388803D01*
X559670Y388822D01*
X559583Y388849D01*
X559498Y388883D01*
X559457Y388887D01*
X559435Y388894D01*
X559402Y388893D01*
X559331Y388901D01*
X556812Y388901D01*
X554001Y391712D01*
X554001Y395688D01*
X556812Y398499D01*
X560788Y398499D01*
X563599Y395688D01*
X563599Y393169D01*
X563613Y393079D01*
X563621Y392988D01*
X563633Y392958D01*
X563638Y392926D01*
X563681Y392846D01*
X563717Y392762D01*
X563743Y392730D01*
X563754Y392709D01*
X563777Y392687D01*
X563822Y392631D01*
X769821Y186632D01*
X769895Y186579D01*
X769964Y186519D01*
X769994Y186507D01*
X770020Y186488D01*
X770107Y186461D01*
X770192Y186427D01*
X770233Y186423D01*
X770255Y186416D01*
X770288Y186417D01*
X770335Y186411D01*
X773149Y183598D01*
X773149Y179622D01*
X770338Y176811D01*
X766362Y176811D01*
G37*
%LPD*%
%LPC*%
G36*
X56014Y429959D02*
X56014Y429959D01*
X48648Y433010D01*
X43010Y438648D01*
X39959Y446014D01*
X39959Y453986D01*
X43010Y461352D01*
X48648Y466990D01*
X56014Y470041D01*
X63986Y470041D01*
X71352Y466990D01*
X76990Y461352D01*
X80041Y453986D01*
X80041Y446014D01*
X76990Y438648D01*
X71352Y433010D01*
X63986Y429959D01*
X56014Y429959D01*
G37*
%LPD*%
%LPC*%
G36*
X456014Y429959D02*
X456014Y429959D01*
X448648Y433010D01*
X443010Y438648D01*
X439959Y446014D01*
X439959Y453986D01*
X443010Y461352D01*
X448648Y466990D01*
X456014Y470041D01*
X463986Y470041D01*
X471352Y466990D01*
X476990Y461352D01*
X480041Y453986D01*
X480041Y446014D01*
X476990Y438648D01*
X471352Y433010D01*
X463986Y429959D01*
X456014Y429959D01*
G37*
%LPD*%
%LPC*%
G36*
X836391Y53847D02*
X836391Y53847D01*
X829762Y56593D01*
X824689Y61666D01*
X821943Y68295D01*
X821943Y75469D01*
X824689Y82098D01*
X829762Y87171D01*
X836391Y89917D01*
X843565Y89917D01*
X850194Y87171D01*
X855267Y82098D01*
X858013Y75469D01*
X858013Y68295D01*
X855267Y61666D01*
X850194Y56593D01*
X843565Y53847D01*
X836391Y53847D01*
G37*
%LPD*%
%LPC*%
G36*
X715995Y53847D02*
X715995Y53847D01*
X709366Y56593D01*
X704293Y61666D01*
X701547Y68295D01*
X701547Y75469D01*
X704293Y82098D01*
X709366Y87171D01*
X715995Y89917D01*
X723169Y89917D01*
X729798Y87171D01*
X734871Y82098D01*
X737617Y75469D01*
X737617Y68295D01*
X734871Y61666D01*
X729798Y56593D01*
X723169Y53847D01*
X715995Y53847D01*
G37*
%LPD*%
%LPC*%
G36*
X737152Y359691D02*
X737152Y359691D01*
X734341Y362502D01*
X734341Y365021D01*
X734327Y365111D01*
X734319Y365202D01*
X734307Y365232D01*
X734302Y365264D01*
X734259Y365344D01*
X734223Y365428D01*
X734197Y365460D01*
X734186Y365481D01*
X734163Y365503D01*
X734118Y365559D01*
X719155Y380522D01*
X719081Y380575D01*
X719012Y380635D01*
X718982Y380647D01*
X718956Y380666D01*
X718869Y380693D01*
X718784Y380727D01*
X718743Y380731D01*
X718721Y380738D01*
X718688Y380737D01*
X718617Y380745D01*
X594857Y380745D01*
X594767Y380731D01*
X594676Y380723D01*
X594646Y380711D01*
X594614Y380706D01*
X594534Y380663D01*
X594450Y380627D01*
X594418Y380601D01*
X594397Y380590D01*
X594375Y380567D01*
X594319Y380522D01*
X592538Y378741D01*
X588562Y378741D01*
X585751Y381552D01*
X585751Y385528D01*
X588562Y388339D01*
X592538Y388339D01*
X594319Y386558D01*
X594393Y386505D01*
X594462Y386445D01*
X594492Y386433D01*
X594518Y386414D01*
X594605Y386387D01*
X594690Y386353D01*
X594731Y386349D01*
X594754Y386342D01*
X594786Y386343D01*
X594857Y386335D01*
X721248Y386335D01*
X738071Y369512D01*
X738145Y369459D01*
X738214Y369399D01*
X738244Y369387D01*
X738270Y369368D01*
X738357Y369341D01*
X738442Y369307D01*
X738483Y369303D01*
X738505Y369296D01*
X738538Y369297D01*
X738609Y369289D01*
X741128Y369289D01*
X743939Y366478D01*
X743939Y362502D01*
X741128Y359691D01*
X737152Y359691D01*
G37*
%LPD*%
%LPC*%
G36*
X591633Y13075D02*
X591633Y13075D01*
X585559Y15591D01*
X580911Y20239D01*
X578395Y26313D01*
X578395Y32887D01*
X580911Y38961D01*
X585559Y43609D01*
X591633Y46125D01*
X598207Y46125D01*
X604281Y43609D01*
X608929Y38961D01*
X611445Y32887D01*
X611445Y26313D01*
X608929Y20239D01*
X604281Y15591D01*
X598207Y13075D01*
X591633Y13075D01*
G37*
%LPD*%
%LPC*%
G36*
X566633Y68075D02*
X566633Y68075D01*
X560559Y70591D01*
X555911Y75239D01*
X553395Y81313D01*
X553395Y87887D01*
X555911Y93961D01*
X560559Y98609D01*
X566633Y101125D01*
X573207Y101125D01*
X579281Y98609D01*
X583929Y93961D01*
X586445Y87887D01*
X586445Y81313D01*
X583929Y75239D01*
X579281Y70591D01*
X573207Y68075D01*
X566633Y68075D01*
G37*
%LPD*%
%LPC*%
G36*
X620633Y104575D02*
X620633Y104575D01*
X614559Y107091D01*
X609911Y111739D01*
X607395Y117813D01*
X607395Y124387D01*
X609911Y130461D01*
X614559Y135109D01*
X620633Y137625D01*
X627207Y137625D01*
X633281Y135109D01*
X637929Y130461D01*
X640445Y124387D01*
X640445Y117813D01*
X637929Y111739D01*
X633281Y107091D01*
X627207Y104575D01*
X620633Y104575D01*
G37*
%LPD*%
%LPC*%
G36*
X562633Y104575D02*
X562633Y104575D01*
X556559Y107091D01*
X551911Y111739D01*
X549395Y117813D01*
X549395Y124387D01*
X551911Y130461D01*
X556559Y135109D01*
X562633Y137625D01*
X569207Y137625D01*
X575281Y135109D01*
X579929Y130461D01*
X582445Y124387D01*
X582445Y117813D01*
X579929Y111739D01*
X575281Y107091D01*
X569207Y104575D01*
X562633Y104575D01*
G37*
%LPD*%
%LPC*%
G36*
X616633Y68075D02*
X616633Y68075D01*
X610559Y70591D01*
X605911Y75239D01*
X603395Y81313D01*
X603395Y87887D01*
X605911Y93961D01*
X610559Y98609D01*
X616633Y101125D01*
X623207Y101125D01*
X629281Y98609D01*
X633929Y93961D01*
X636445Y87887D01*
X636445Y81313D01*
X633929Y75239D01*
X629281Y70591D01*
X623207Y68075D01*
X616633Y68075D01*
G37*
%LPD*%
%LPC*%
G36*
X765309Y89153D02*
X765309Y89153D01*
X761668Y90661D01*
X758881Y93448D01*
X757373Y97089D01*
X757373Y101031D01*
X758881Y104672D01*
X761668Y107459D01*
X763610Y108263D01*
X763671Y108301D01*
X763736Y108330D01*
X763775Y108365D01*
X763819Y108392D01*
X763865Y108448D01*
X763917Y108496D01*
X763942Y108542D01*
X763976Y108582D01*
X764001Y108649D01*
X764036Y108712D01*
X764045Y108763D01*
X764064Y108811D01*
X764067Y108883D01*
X764080Y108954D01*
X764072Y109005D01*
X764074Y109057D01*
X764054Y109126D01*
X764044Y109197D01*
X764020Y109243D01*
X764006Y109293D01*
X763965Y109352D01*
X763932Y109416D01*
X763895Y109453D01*
X763865Y109495D01*
X763808Y109538D01*
X763757Y109588D01*
X763694Y109623D01*
X763668Y109642D01*
X763646Y109649D01*
X763610Y109669D01*
X761668Y110473D01*
X758881Y113260D01*
X757373Y116901D01*
X757373Y120843D01*
X758881Y124484D01*
X761668Y127271D01*
X765309Y128779D01*
X769251Y128779D01*
X772892Y127271D01*
X775679Y124484D01*
X777187Y120843D01*
X777187Y116901D01*
X775679Y113260D01*
X772892Y110473D01*
X770950Y109669D01*
X770889Y109631D01*
X770824Y109602D01*
X770786Y109567D01*
X770741Y109540D01*
X770695Y109484D01*
X770643Y109436D01*
X770618Y109390D01*
X770584Y109350D01*
X770559Y109283D01*
X770524Y109220D01*
X770515Y109169D01*
X770496Y109121D01*
X770493Y109049D01*
X770480Y108978D01*
X770488Y108927D01*
X770486Y108875D01*
X770506Y108806D01*
X770516Y108735D01*
X770540Y108689D01*
X770554Y108639D01*
X770595Y108580D01*
X770628Y108516D01*
X770665Y108479D01*
X770695Y108437D01*
X770752Y108394D01*
X770803Y108344D01*
X770866Y108309D01*
X770892Y108290D01*
X770914Y108283D01*
X770950Y108263D01*
X772892Y107459D01*
X775679Y104672D01*
X777187Y101031D01*
X777187Y97089D01*
X775679Y93448D01*
X772892Y90661D01*
X769251Y89153D01*
X765309Y89153D01*
G37*
%LPD*%
%LPC*%
G36*
X790309Y89153D02*
X790309Y89153D01*
X786668Y90661D01*
X783881Y93448D01*
X782373Y97089D01*
X782373Y101031D01*
X783881Y104672D01*
X786668Y107459D01*
X788610Y108263D01*
X788671Y108301D01*
X788736Y108330D01*
X788775Y108365D01*
X788819Y108392D01*
X788865Y108448D01*
X788917Y108496D01*
X788942Y108542D01*
X788976Y108582D01*
X789001Y108649D01*
X789036Y108712D01*
X789045Y108763D01*
X789064Y108811D01*
X789067Y108883D01*
X789080Y108954D01*
X789072Y109005D01*
X789074Y109057D01*
X789054Y109126D01*
X789044Y109197D01*
X789020Y109243D01*
X789006Y109293D01*
X788965Y109352D01*
X788932Y109416D01*
X788895Y109453D01*
X788865Y109495D01*
X788808Y109538D01*
X788757Y109588D01*
X788694Y109623D01*
X788668Y109642D01*
X788646Y109649D01*
X788610Y109669D01*
X786668Y110473D01*
X783881Y113260D01*
X782373Y116901D01*
X782373Y120843D01*
X783881Y124484D01*
X786668Y127271D01*
X790309Y128779D01*
X794251Y128779D01*
X797892Y127271D01*
X800679Y124484D01*
X802187Y120843D01*
X802187Y116901D01*
X800679Y113260D01*
X797892Y110473D01*
X795950Y109669D01*
X795889Y109631D01*
X795824Y109602D01*
X795786Y109567D01*
X795741Y109540D01*
X795695Y109484D01*
X795643Y109436D01*
X795618Y109390D01*
X795584Y109350D01*
X795559Y109283D01*
X795524Y109220D01*
X795515Y109169D01*
X795496Y109121D01*
X795493Y109049D01*
X795480Y108978D01*
X795488Y108927D01*
X795486Y108875D01*
X795506Y108806D01*
X795516Y108735D01*
X795540Y108689D01*
X795554Y108639D01*
X795595Y108580D01*
X795628Y108516D01*
X795665Y108479D01*
X795695Y108437D01*
X795752Y108394D01*
X795803Y108344D01*
X795866Y108309D01*
X795892Y108290D01*
X795914Y108283D01*
X795950Y108263D01*
X797892Y107459D01*
X800679Y104672D01*
X802187Y101031D01*
X802187Y97089D01*
X800679Y93448D01*
X797892Y90661D01*
X794251Y89153D01*
X790309Y89153D01*
G37*
%LPD*%
%LPC*%
G36*
X379860Y117347D02*
X379860Y117347D01*
X378967Y118240D01*
X378967Y138300D01*
X379860Y139193D01*
X399920Y139193D01*
X400813Y138300D01*
X400813Y118240D01*
X399920Y117347D01*
X379860Y117347D01*
G37*
%LPD*%
%LPC*%
G36*
X562551Y435450D02*
X562551Y435450D01*
X559587Y436678D01*
X557318Y438947D01*
X556090Y441911D01*
X556090Y458199D01*
X557318Y461163D01*
X559587Y463432D01*
X562551Y464660D01*
X565759Y464660D01*
X568723Y463432D01*
X570992Y461163D01*
X572220Y458199D01*
X572220Y441911D01*
X570992Y438947D01*
X568723Y436678D01*
X565759Y435450D01*
X562551Y435450D01*
G37*
%LPD*%
%LPC*%
G36*
X511761Y174225D02*
X511761Y174225D01*
X508797Y175453D01*
X506528Y177722D01*
X505300Y180686D01*
X505300Y183894D01*
X506528Y186858D01*
X508797Y189127D01*
X511761Y190355D01*
X528049Y190355D01*
X531013Y189127D01*
X533282Y186858D01*
X534510Y183894D01*
X534510Y180686D01*
X533282Y177722D01*
X531013Y175453D01*
X528049Y174225D01*
X511761Y174225D01*
G37*
%LPD*%
%LPC*%
G36*
X564456Y161130D02*
X564456Y161130D01*
X561492Y162358D01*
X559223Y164627D01*
X557995Y167591D01*
X557995Y183879D01*
X559223Y186843D01*
X561492Y189112D01*
X564456Y190340D01*
X567664Y190340D01*
X570628Y189112D01*
X572897Y186843D01*
X574125Y183879D01*
X574125Y167591D01*
X572897Y164627D01*
X570628Y162358D01*
X567664Y161130D01*
X564456Y161130D01*
G37*
%LPD*%
%LPC*%
G36*
X19321Y344635D02*
X19321Y344635D01*
X16357Y345863D01*
X14088Y348132D01*
X12860Y351096D01*
X12860Y354304D01*
X14088Y357268D01*
X16357Y359537D01*
X19321Y360765D01*
X35609Y360765D01*
X38573Y359537D01*
X40842Y357268D01*
X42070Y354304D01*
X42070Y351096D01*
X40842Y348132D01*
X38573Y345863D01*
X35609Y344635D01*
X19321Y344635D01*
G37*
%LPD*%
%LPC*%
G36*
X511761Y194225D02*
X511761Y194225D01*
X508797Y195453D01*
X506528Y197722D01*
X505300Y200686D01*
X505300Y203894D01*
X506528Y206858D01*
X508797Y209127D01*
X511761Y210355D01*
X528049Y210355D01*
X531013Y209127D01*
X533282Y206858D01*
X534510Y203894D01*
X534510Y200686D01*
X533282Y197722D01*
X531013Y195453D01*
X528049Y194225D01*
X511761Y194225D01*
G37*
%LPD*%
%LPC*%
G36*
X542551Y435450D02*
X542551Y435450D01*
X539587Y436678D01*
X537318Y438947D01*
X536090Y441911D01*
X536090Y458199D01*
X537318Y461163D01*
X539587Y463432D01*
X542551Y464660D01*
X545759Y464660D01*
X548723Y463432D01*
X550992Y461163D01*
X552220Y458199D01*
X552220Y441911D01*
X550992Y438947D01*
X548723Y436678D01*
X545759Y435450D01*
X542551Y435450D01*
G37*
%LPD*%
%LPC*%
G36*
X712496Y162720D02*
X712496Y162720D01*
X709532Y163948D01*
X707263Y166217D01*
X706035Y169181D01*
X706035Y185469D01*
X707263Y188433D01*
X709532Y190702D01*
X712496Y191930D01*
X715704Y191930D01*
X718668Y190702D01*
X720937Y188433D01*
X722165Y185469D01*
X722165Y169181D01*
X720937Y166217D01*
X718668Y163948D01*
X715704Y162720D01*
X712496Y162720D01*
G37*
%LPD*%
%LPC*%
G36*
X806391Y435450D02*
X806391Y435450D01*
X803427Y436678D01*
X801158Y438947D01*
X799930Y441911D01*
X799930Y458199D01*
X801158Y461163D01*
X803427Y463432D01*
X806391Y464660D01*
X809599Y464660D01*
X812563Y463432D01*
X814832Y461163D01*
X816060Y458199D01*
X816060Y441911D01*
X814832Y438947D01*
X812563Y436678D01*
X809599Y435450D01*
X806391Y435450D01*
G37*
%LPD*%
%LPC*%
G36*
X623831Y435450D02*
X623831Y435450D01*
X620867Y436678D01*
X618598Y438947D01*
X617370Y441911D01*
X617370Y458199D01*
X618598Y461163D01*
X620867Y463432D01*
X623831Y464660D01*
X627039Y464660D01*
X630003Y463432D01*
X632272Y461163D01*
X633500Y458199D01*
X633500Y441911D01*
X632272Y438947D01*
X630003Y436678D01*
X627039Y435450D01*
X623831Y435450D01*
G37*
%LPD*%
%LPC*%
G36*
X627726Y162720D02*
X627726Y162720D01*
X624762Y163948D01*
X622493Y166217D01*
X621265Y169181D01*
X621265Y185469D01*
X622493Y188433D01*
X624762Y190702D01*
X627726Y191930D01*
X630934Y191930D01*
X633898Y190702D01*
X636167Y188433D01*
X637395Y185469D01*
X637395Y169181D01*
X636167Y166217D01*
X633898Y163948D01*
X630934Y162720D01*
X627726Y162720D01*
G37*
%LPD*%
%LPC*%
G36*
X643831Y435450D02*
X643831Y435450D01*
X640867Y436678D01*
X638598Y438947D01*
X637370Y441911D01*
X637370Y458199D01*
X638598Y461163D01*
X640867Y463432D01*
X643831Y464660D01*
X647039Y464660D01*
X650003Y463432D01*
X652272Y461163D01*
X653500Y458199D01*
X653500Y441911D01*
X652272Y438947D01*
X650003Y436678D01*
X647039Y435450D01*
X643831Y435450D01*
G37*
%LPD*%
%LPC*%
G36*
X647726Y162720D02*
X647726Y162720D01*
X644762Y163948D01*
X642493Y166217D01*
X641265Y169181D01*
X641265Y185469D01*
X642493Y188433D01*
X644762Y190702D01*
X647726Y191930D01*
X650934Y191930D01*
X653898Y190702D01*
X656167Y188433D01*
X657395Y185469D01*
X657395Y169181D01*
X656167Y166217D01*
X653898Y163948D01*
X650934Y162720D01*
X647726Y162720D01*
G37*
%LPD*%
%LPC*%
G36*
X786391Y435450D02*
X786391Y435450D01*
X783427Y436678D01*
X781158Y438947D01*
X779930Y441911D01*
X779930Y458199D01*
X781158Y461163D01*
X783427Y463432D01*
X786391Y464660D01*
X789599Y464660D01*
X792563Y463432D01*
X794832Y461163D01*
X796060Y458199D01*
X796060Y441911D01*
X794832Y438947D01*
X792563Y436678D01*
X789599Y435450D01*
X786391Y435450D01*
G37*
%LPD*%
%LPC*%
G36*
X692496Y162720D02*
X692496Y162720D01*
X689532Y163948D01*
X687263Y166217D01*
X686035Y169181D01*
X686035Y185469D01*
X687263Y188433D01*
X689532Y190702D01*
X692496Y191930D01*
X695704Y191930D01*
X698668Y190702D01*
X700937Y188433D01*
X702165Y185469D01*
X702165Y169181D01*
X700937Y166217D01*
X698668Y163948D01*
X695704Y162720D01*
X692496Y162720D01*
G37*
%LPD*%
%LPC*%
G36*
X705111Y435450D02*
X705111Y435450D01*
X702147Y436678D01*
X699878Y438947D01*
X698650Y441911D01*
X698650Y458199D01*
X699878Y461163D01*
X702147Y463432D01*
X705111Y464660D01*
X708319Y464660D01*
X711283Y463432D01*
X713552Y461163D01*
X714780Y458199D01*
X714780Y441911D01*
X713552Y438947D01*
X711283Y436678D01*
X708319Y435450D01*
X705111Y435450D01*
G37*
%LPD*%
%LPC*%
G36*
X584456Y161130D02*
X584456Y161130D01*
X581492Y162358D01*
X579223Y164627D01*
X577995Y167591D01*
X577995Y183879D01*
X579223Y186843D01*
X581492Y189112D01*
X584456Y190340D01*
X587664Y190340D01*
X590628Y189112D01*
X592897Y186843D01*
X594125Y183879D01*
X594125Y167591D01*
X592897Y164627D01*
X590628Y162358D01*
X587664Y161130D01*
X584456Y161130D01*
G37*
%LPD*%
%LPC*%
G36*
X725111Y435450D02*
X725111Y435450D01*
X722147Y436678D01*
X719878Y438947D01*
X718650Y441911D01*
X718650Y458199D01*
X719878Y461163D01*
X722147Y463432D01*
X725111Y464660D01*
X728319Y464660D01*
X731283Y463432D01*
X733552Y461163D01*
X734780Y458199D01*
X734780Y441911D01*
X733552Y438947D01*
X731283Y436678D01*
X728319Y435450D01*
X725111Y435450D01*
G37*
%LPD*%
%LPC*%
G36*
X567724Y38559D02*
X567724Y38559D01*
X563666Y40240D01*
X560560Y43346D01*
X558879Y47404D01*
X558879Y51796D01*
X560560Y55854D01*
X563666Y58960D01*
X567724Y60641D01*
X572116Y60641D01*
X576174Y58960D01*
X579280Y55854D01*
X580961Y51796D01*
X580961Y47404D01*
X579280Y43346D01*
X576174Y40240D01*
X572116Y38559D01*
X567724Y38559D01*
G37*
%LPD*%
%LPC*%
G36*
X617724Y38559D02*
X617724Y38559D01*
X613666Y40240D01*
X610560Y43346D01*
X608879Y47404D01*
X608879Y51796D01*
X610560Y55854D01*
X613666Y58960D01*
X617724Y60641D01*
X622116Y60641D01*
X626174Y58960D01*
X629280Y55854D01*
X630961Y51796D01*
X630961Y47404D01*
X629280Y43346D01*
X626174Y40240D01*
X622116Y38559D01*
X617724Y38559D01*
G37*
%LPD*%
%LPC*%
G36*
X387717Y91947D02*
X387717Y91947D01*
X383703Y93610D01*
X380630Y96683D01*
X378967Y100697D01*
X378967Y105043D01*
X380630Y109057D01*
X383703Y112130D01*
X387717Y113793D01*
X392063Y113793D01*
X396077Y112130D01*
X399150Y109057D01*
X400813Y105043D01*
X400813Y100697D01*
X399150Y96683D01*
X396077Y93610D01*
X392063Y91947D01*
X387717Y91947D01*
G37*
%LPD*%
%LPC*%
G36*
X497139Y39623D02*
X497139Y39623D01*
X493498Y41131D01*
X490711Y43918D01*
X489203Y47559D01*
X489203Y51501D01*
X490711Y55142D01*
X493498Y57929D01*
X497139Y59437D01*
X501081Y59437D01*
X504722Y57929D01*
X507509Y55142D01*
X509017Y51501D01*
X509017Y47559D01*
X507509Y43918D01*
X504722Y41131D01*
X501081Y39623D01*
X497139Y39623D01*
G37*
%LPD*%
%LPC*%
G36*
X497139Y141223D02*
X497139Y141223D01*
X493498Y142731D01*
X490711Y145518D01*
X489203Y149159D01*
X489203Y153101D01*
X490711Y156742D01*
X493498Y159529D01*
X497139Y161037D01*
X501081Y161037D01*
X504722Y159529D01*
X507509Y156742D01*
X509017Y153101D01*
X509017Y149159D01*
X507509Y145518D01*
X504722Y142731D01*
X501081Y141223D01*
X497139Y141223D01*
G37*
%LPD*%
%LPC*%
G36*
X353680Y434847D02*
X353680Y434847D01*
X350132Y436317D01*
X347417Y439032D01*
X345947Y442580D01*
X345947Y446420D01*
X347417Y449968D01*
X350132Y452683D01*
X353680Y454153D01*
X357520Y454153D01*
X361068Y452683D01*
X363783Y449968D01*
X365253Y446420D01*
X365253Y442580D01*
X363783Y439032D01*
X361068Y436317D01*
X357520Y434847D01*
X353680Y434847D01*
G37*
%LPD*%
%LPC*%
G36*
X379080Y460247D02*
X379080Y460247D01*
X375532Y461717D01*
X372817Y464432D01*
X371347Y467980D01*
X371347Y471820D01*
X372817Y475368D01*
X375532Y478083D01*
X379080Y479553D01*
X382920Y479553D01*
X386468Y478083D01*
X389183Y475368D01*
X390653Y471820D01*
X390653Y467980D01*
X389183Y464432D01*
X386468Y461717D01*
X382920Y460247D01*
X379080Y460247D01*
G37*
%LPD*%
%LPC*%
G36*
X328280Y434847D02*
X328280Y434847D01*
X324732Y436317D01*
X322017Y439032D01*
X320547Y442580D01*
X320547Y446420D01*
X322017Y449968D01*
X324732Y452683D01*
X328280Y454153D01*
X332120Y454153D01*
X335668Y452683D01*
X338383Y449968D01*
X339853Y446420D01*
X339853Y442580D01*
X338383Y439032D01*
X335668Y436317D01*
X332120Y434847D01*
X328280Y434847D01*
G37*
%LPD*%
%LPC*%
G36*
X328280Y460247D02*
X328280Y460247D01*
X324732Y461717D01*
X322017Y464432D01*
X320547Y467980D01*
X320547Y471820D01*
X322017Y475368D01*
X324732Y478083D01*
X328280Y479553D01*
X332120Y479553D01*
X335668Y478083D01*
X338383Y475368D01*
X339853Y471820D01*
X339853Y467980D01*
X338383Y464432D01*
X335668Y461717D01*
X332120Y460247D01*
X328280Y460247D01*
G37*
%LPD*%
%LPC*%
G36*
X353680Y460247D02*
X353680Y460247D01*
X350132Y461717D01*
X347417Y464432D01*
X345947Y467980D01*
X345947Y471820D01*
X347417Y475368D01*
X350132Y478083D01*
X353680Y479553D01*
X357520Y479553D01*
X361068Y478083D01*
X363783Y475368D01*
X365253Y471820D01*
X365253Y467980D01*
X363783Y464432D01*
X361068Y461717D01*
X357520Y460247D01*
X353680Y460247D01*
G37*
%LPD*%
%LPC*%
G36*
X357793Y294131D02*
X357793Y294131D01*
X354805Y295369D01*
X352519Y297655D01*
X351281Y300643D01*
X351281Y303877D01*
X352519Y306865D01*
X354805Y309151D01*
X357793Y310389D01*
X361027Y310389D01*
X364015Y309151D01*
X366301Y306865D01*
X367539Y303877D01*
X367539Y300643D01*
X366301Y297655D01*
X364015Y295369D01*
X361027Y294131D01*
X357793Y294131D01*
G37*
%LPD*%
%LPC*%
G36*
X357793Y342391D02*
X357793Y342391D01*
X354805Y343629D01*
X352519Y345915D01*
X351281Y348903D01*
X351281Y352137D01*
X352519Y355125D01*
X354805Y357411D01*
X357793Y358649D01*
X361027Y358649D01*
X364015Y357411D01*
X366301Y355125D01*
X367539Y352137D01*
X367539Y348903D01*
X366301Y345915D01*
X364015Y343629D01*
X361027Y342391D01*
X357793Y342391D01*
G37*
%LPD*%
%LPC*%
G36*
X829518Y451578D02*
X829518Y451578D01*
X829518Y465551D01*
X830644Y465327D01*
X832296Y464642D01*
X833784Y463648D01*
X835048Y462384D01*
X836042Y460896D01*
X836727Y459244D01*
X837076Y457489D01*
X837076Y451578D01*
X829518Y451578D01*
G37*
%LPD*%
%LPC*%
G36*
X585678Y451578D02*
X585678Y451578D01*
X585678Y465551D01*
X586804Y465327D01*
X588456Y464642D01*
X589944Y463648D01*
X591208Y462384D01*
X592202Y460896D01*
X592887Y459244D01*
X593236Y457489D01*
X593236Y451578D01*
X585678Y451578D01*
G37*
%LPD*%
%LPC*%
G36*
X666958Y451578D02*
X666958Y451578D01*
X666958Y465551D01*
X668084Y465327D01*
X669736Y464642D01*
X671224Y463648D01*
X672488Y462384D01*
X673482Y460896D01*
X674167Y459244D01*
X674516Y457489D01*
X674516Y451578D01*
X666958Y451578D01*
G37*
%LPD*%
%LPC*%
G36*
X748238Y451578D02*
X748238Y451578D01*
X748238Y465551D01*
X749364Y465327D01*
X751016Y464642D01*
X752504Y463648D01*
X753768Y462384D01*
X754762Y460896D01*
X755447Y459244D01*
X755796Y457489D01*
X755796Y451578D01*
X748238Y451578D01*
G37*
%LPD*%
%LPC*%
G36*
X748238Y448532D02*
X748238Y448532D01*
X755796Y448532D01*
X755796Y442621D01*
X755447Y440866D01*
X754762Y439214D01*
X753768Y437726D01*
X752504Y436462D01*
X751016Y435468D01*
X749364Y434783D01*
X748238Y434559D01*
X748238Y448532D01*
G37*
%LPD*%
%LPC*%
G36*
X829518Y448532D02*
X829518Y448532D01*
X837076Y448532D01*
X837076Y442621D01*
X836727Y440866D01*
X836042Y439214D01*
X835048Y437726D01*
X833784Y436462D01*
X832296Y435468D01*
X830644Y434783D01*
X829518Y434559D01*
X829518Y448532D01*
G37*
%LPD*%
%LPC*%
G36*
X666958Y448532D02*
X666958Y448532D01*
X674516Y448532D01*
X674516Y442621D01*
X674167Y440866D01*
X673482Y439214D01*
X672488Y437726D01*
X671224Y436462D01*
X669736Y435468D01*
X668084Y434783D01*
X666958Y434559D01*
X666958Y448532D01*
G37*
%LPD*%
%LPC*%
G36*
X585678Y448532D02*
X585678Y448532D01*
X593236Y448532D01*
X593236Y442621D01*
X592887Y440866D01*
X592202Y439214D01*
X591208Y437726D01*
X589944Y436462D01*
X588456Y435468D01*
X586804Y434783D01*
X585678Y434559D01*
X585678Y448532D01*
G37*
%LPD*%
%LPC*%
G36*
X818914Y451578D02*
X818914Y451578D01*
X818914Y457489D01*
X819263Y459244D01*
X819948Y460896D01*
X820942Y462384D01*
X822206Y463648D01*
X823694Y464642D01*
X825346Y465327D01*
X826472Y465551D01*
X826472Y451578D01*
X818914Y451578D01*
G37*
%LPD*%
%LPC*%
G36*
X575074Y451578D02*
X575074Y451578D01*
X575074Y457489D01*
X575423Y459244D01*
X576108Y460896D01*
X577102Y462384D01*
X578366Y463648D01*
X579854Y464642D01*
X581506Y465327D01*
X582632Y465551D01*
X582632Y451578D01*
X575074Y451578D01*
G37*
%LPD*%
%LPC*%
G36*
X656354Y451578D02*
X656354Y451578D01*
X656354Y457489D01*
X656703Y459244D01*
X657388Y460896D01*
X658382Y462384D01*
X659646Y463648D01*
X661134Y464642D01*
X662786Y465327D01*
X663912Y465551D01*
X663912Y451578D01*
X656354Y451578D01*
G37*
%LPD*%
%LPC*%
G36*
X737634Y451578D02*
X737634Y451578D01*
X737634Y457489D01*
X737983Y459244D01*
X738668Y460896D01*
X739662Y462384D01*
X740926Y463648D01*
X742414Y464642D01*
X744066Y465327D01*
X745192Y465551D01*
X745192Y451578D01*
X737634Y451578D01*
G37*
%LPD*%
%LPC*%
G36*
X825346Y434783D02*
X825346Y434783D01*
X823694Y435468D01*
X822206Y436462D01*
X820942Y437726D01*
X819948Y439214D01*
X819263Y440866D01*
X818914Y442621D01*
X818914Y448532D01*
X826472Y448532D01*
X826472Y434559D01*
X825346Y434783D01*
G37*
%LPD*%
%LPC*%
G36*
X581506Y434783D02*
X581506Y434783D01*
X579854Y435468D01*
X578366Y436462D01*
X577102Y437726D01*
X576108Y439214D01*
X575423Y440866D01*
X575074Y442621D01*
X575074Y448532D01*
X582632Y448532D01*
X582632Y434559D01*
X581506Y434783D01*
G37*
%LPD*%
%LPC*%
G36*
X744066Y434783D02*
X744066Y434783D01*
X742414Y435468D01*
X740926Y436462D01*
X739662Y437726D01*
X738668Y439214D01*
X737983Y440866D01*
X737634Y442621D01*
X737634Y448532D01*
X745192Y448532D01*
X745192Y434559D01*
X744066Y434783D01*
G37*
%LPD*%
%LPC*%
G36*
X662786Y434783D02*
X662786Y434783D01*
X661134Y435468D01*
X659646Y436462D01*
X658382Y437726D01*
X657388Y439214D01*
X656703Y440866D01*
X656354Y442621D01*
X656354Y448532D01*
X663912Y448532D01*
X663912Y434559D01*
X662786Y434783D01*
G37*
%LPD*%
%LPC*%
G36*
X391413Y78993D02*
X391413Y78993D01*
X391413Y89316D01*
X392686Y89115D01*
X394473Y88534D01*
X396147Y87681D01*
X397668Y86576D01*
X398996Y85248D01*
X400101Y83727D01*
X400954Y82053D01*
X401535Y80266D01*
X401736Y78993D01*
X391413Y78993D01*
G37*
%LPD*%
%LPC*%
G36*
X378044Y78993D02*
X378044Y78993D01*
X378245Y80266D01*
X378826Y82053D01*
X379679Y83727D01*
X380784Y85248D01*
X382112Y86576D01*
X383633Y87681D01*
X385307Y88534D01*
X387094Y89115D01*
X388367Y89316D01*
X388367Y78993D01*
X378044Y78993D01*
G37*
%LPD*%
%LPC*%
G36*
X391413Y75947D02*
X391413Y75947D01*
X401736Y75947D01*
X401535Y74674D01*
X400954Y72887D01*
X400101Y71213D01*
X398996Y69692D01*
X397668Y68364D01*
X396147Y67259D01*
X394473Y66406D01*
X392686Y65825D01*
X391413Y65624D01*
X391413Y75947D01*
G37*
%LPD*%
%LPC*%
G36*
X387094Y65825D02*
X387094Y65825D01*
X385307Y66406D01*
X383633Y67259D01*
X382112Y68364D01*
X380784Y69692D01*
X379679Y71213D01*
X378826Y72887D01*
X378245Y74674D01*
X378044Y75947D01*
X388367Y75947D01*
X388367Y65624D01*
X387094Y65825D01*
G37*
%LPD*%
%LPC*%
G36*
X382523Y446023D02*
X382523Y446023D01*
X382523Y455060D01*
X383498Y454906D01*
X385095Y454387D01*
X386592Y453625D01*
X387950Y452638D01*
X389138Y451450D01*
X390125Y450092D01*
X390887Y448595D01*
X391406Y446998D01*
X391560Y446023D01*
X382523Y446023D01*
G37*
%LPD*%
%LPC*%
G36*
X382523Y442977D02*
X382523Y442977D01*
X391560Y442977D01*
X391406Y442002D01*
X390887Y440405D01*
X390125Y438908D01*
X389138Y437550D01*
X387950Y436362D01*
X386592Y435375D01*
X385095Y434613D01*
X383498Y434094D01*
X382523Y433940D01*
X382523Y442977D01*
G37*
%LPD*%
%LPC*%
G36*
X370440Y446023D02*
X370440Y446023D01*
X370594Y446998D01*
X371113Y448595D01*
X371875Y450092D01*
X372862Y451450D01*
X374050Y452638D01*
X375408Y453625D01*
X376905Y454387D01*
X378502Y454906D01*
X379477Y455060D01*
X379477Y446023D01*
X370440Y446023D01*
G37*
%LPD*%
%LPC*%
G36*
X378502Y434094D02*
X378502Y434094D01*
X376905Y434613D01*
X375408Y435375D01*
X374050Y436362D01*
X372862Y437550D01*
X371875Y438908D01*
X371113Y440405D01*
X370594Y442002D01*
X370440Y442977D01*
X379477Y442977D01*
X379477Y433940D01*
X378502Y434094D01*
G37*
%LPD*%
%LPC*%
G36*
X584154Y450054D02*
X584154Y450054D01*
X584154Y450056D01*
X584156Y450056D01*
X584156Y450054D01*
X584154Y450054D01*
G37*
%LPD*%
%LPC*%
G36*
X389889Y77469D02*
X389889Y77469D01*
X389889Y77471D01*
X389891Y77471D01*
X389891Y77469D01*
X389889Y77469D01*
G37*
%LPD*%
%LPC*%
G36*
X665434Y450054D02*
X665434Y450054D01*
X665434Y450056D01*
X665436Y450056D01*
X665436Y450054D01*
X665434Y450054D01*
G37*
%LPD*%
%LPC*%
G36*
X746714Y450054D02*
X746714Y450054D01*
X746714Y450056D01*
X746716Y450056D01*
X746716Y450054D01*
X746714Y450054D01*
G37*
%LPD*%
%LPC*%
G36*
X380999Y444499D02*
X380999Y444499D01*
X380999Y444501D01*
X381001Y444501D01*
X381001Y444499D01*
X380999Y444499D01*
G37*
%LPD*%
%LPC*%
G36*
X827994Y450054D02*
X827994Y450054D01*
X827994Y450056D01*
X827996Y450056D01*
X827996Y450054D01*
X827994Y450054D01*
G37*
%LPD*%
D10*
X499110Y49530D03*
X499110Y151130D03*
D11*
X389890Y128270D03*
D12*
X389890Y102870D03*
X389890Y77470D03*
D13*
X355600Y469900D03*
X355600Y444500D03*
X381000Y444500D03*
X381000Y469900D03*
X330200Y469900D03*
X330200Y444500D03*
D14*
X34005Y352700D02*
X20925Y352700D01*
X20925Y372700D02*
X34005Y372700D01*
X34005Y250470D02*
X20925Y250470D01*
X20925Y270470D02*
X34005Y270470D01*
X34005Y290470D02*
X20925Y290470D01*
X20925Y310470D02*
X34005Y310470D01*
X544155Y443515D02*
X544155Y456595D01*
X564155Y456595D02*
X564155Y443515D01*
X584155Y443515D02*
X584155Y456595D01*
X566060Y182275D02*
X566060Y169195D01*
X586060Y169195D02*
X586060Y182275D01*
X625435Y443515D02*
X625435Y456595D01*
X645435Y456595D02*
X645435Y443515D01*
X665435Y443515D02*
X665435Y456595D01*
X706715Y456595D02*
X706715Y443515D01*
X726715Y443515D02*
X726715Y456595D01*
X746715Y456595D02*
X746715Y443515D01*
X649330Y183865D02*
X649330Y170785D01*
X629330Y170785D02*
X629330Y183865D01*
D15*
X359410Y350520D03*
X359410Y302260D03*
D10*
X792280Y118872D03*
X767280Y118872D03*
X767280Y99060D03*
X792280Y99060D03*
D16*
X839978Y71882D03*
X719582Y71882D03*
D17*
X594920Y29600D03*
X619920Y84600D03*
X569920Y84600D03*
X623920Y121100D03*
X565920Y121100D03*
D14*
X787995Y443515D02*
X787995Y456595D01*
X807995Y456595D02*
X807995Y443515D01*
X827995Y443515D02*
X827995Y456595D01*
X714100Y183865D02*
X714100Y170785D01*
X694100Y170785D02*
X694100Y183865D01*
X526445Y202290D02*
X513365Y202290D01*
X513365Y182290D02*
X526445Y182290D01*
D18*
X384810Y234950D03*
X278130Y445770D03*
X948690Y486410D03*
X948690Y255270D03*
X95250Y25400D03*
X488950Y430530D03*
X553720Y251460D03*
X391160Y346710D03*
X254000Y232410D03*
X454660Y205740D03*
X542290Y231140D03*
X768350Y181610D03*
D19*
X768350Y184150D01*
X571500Y381000D01*
D18*
X558800Y393700D03*
D19*
X571500Y381000D01*
D18*
X750570Y181610D03*
D19*
X527050Y405130D01*
X526415Y404495D01*
D18*
X526415Y404495D03*
D20*
X121920Y310470D03*
D21*
X27465Y310470D01*
X27465Y290470D02*
X132990Y290470D01*
D20*
X132990Y290470D03*
D21*
X123190Y250470D02*
X27465Y250470D01*
D20*
X123190Y250470D03*
D21*
X128230Y270470D02*
X27465Y270470D01*
D20*
X128230Y270470D03*
D22*
X27465Y372700D02*
X309200Y372700D01*
X330200Y393700D01*
X381000Y393700D01*
X482600Y292100D01*
D18*
X482600Y292100D03*
X590550Y383540D03*
D19*
X720090Y383540D01*
X739140Y364490D01*
D18*
X739140Y364490D03*
M02*
