0
SECTION
2
HEADER
9
$INSUNITS
70
4
9
$ACADVER
1
AC1014
9
$HANDSEED
5
FFFF
0
ENDSEC
0
SECTION
2
TABLES
0
TABLE
2
VPORT
5
8
100
AcDbSymbolTable
0
ENDTAB
0
TABLE
2
LTYPE
5
5
100
AcDbSymbolTable
0
LTYPE
5
14
100
AcDbSymbolTableRecord
100
AcDbLinetypeTableRecord
2
BYBLOCK
70
0
0
LTYPE
5
15
100
AcDbSymbolTableRecord
100
AcDbLinetypeTableRecord
2
BYLAYER
70
0
0
ENDTAB
0
TABLE
2
LAYER
5
2
100
AcDbSymbolTable
70
2
0
LAYER
5
50
100
AcDbSymbolTableRecord
100
AcDbLayerTableRecord
2
0
70
0
6
CONTINUOUS
0
ENDTAB
0
TABLE
2
STYLE
5
3
100
AcDbSymbolTable
70
1
0
STYLE
5
11
100
AcDbSymbolTableRecord
100
AcDbTextStyleTableRecord
2
STANDARD
70
0
0
ENDTAB
0
TABLE
2
VIEW
5
6
100
AcDbSymbolTable
70
0
0
ENDTAB
0
TABLE
2
UCS
5
7
100
AcDbSymbolTable
70
0
0
ENDTAB
0
TABLE
2
APPID
5
9
100
AcDbSymbolTable
70
2
0
APPID
5
12
100
AcDbSymbolTableRecord
100
AcDbRegAppTableRecord
2
ACAD
70
0
0
ENDTAB
0
TABLE
2
DIMSTYLE
5
A
100
AcDbSymbolTable
70
1
0
ENDTAB
0
TABLE
2
BLOCK_RECORD
5
1
100
AcDbSymbolTable
70
1
0
BLOCK_RECORD
5
1F
100
AcDbSymbolTableRecord
100
AcDbBlockTableRecord
2
*MODEL_SPACE
0
BLOCK_RECORD
5
1B
100
AcDbSymbolTableRecord
100
AcDbBlockTableRecord
2
*PAPER_SPACE
0
ENDTAB
0
ENDSEC
0
SECTION
2
BLOCKS
0
BLOCK
5
20
100
AcDbEntity
100
AcDbBlockBegin
2
*MODEL_SPACE
0
ENDBLK
5
21
100
AcDbEntity
100
AcDbBlockEnd
0
BLOCK
5
1C
100
AcDbEntity
100
AcDbBlockBegin
2
*PAPER_SPACE
0
ENDBLK
5
1D
100
AcDbEntity
100
AcDbBlockEnd
0
ENDSEC
0
SECTION
2
ENTITIES
0
SPLINE
5
100
100
AcDbEntity
8
0
100
AcDbSpline
70
2
71
3
72
56
73
52
74
0
42
0.000000001
43
0.0000000001
44
0.0000000001
40
11.986826824783435
40
11.986826824783435
40
11.986826824783435
40
11.986826824783435
40
12
40
12
40
12
40
12.506107192671314
40
12.506107192671314
40
12.506107192671314
40
13
40
13
40
13
40
14
40
14
40
14
40
15
40
15
40
15
40
16
40
16
40
16
40
17
40
17
40
17
40
18
40
18
40
18
40
19
40
19
40
19
40
20
40
20
40
20
40
21
40
21
40
21
40
21.506107192671315
40
21.506107192671315
40
21.506107192671315
40
22
40
22
40
22
40
22.506107192671315
40
22.506107192671315
40
22.506107192671315
40
23
40
23
40
23
40
23.506107192671315
40
23.506107192671315
40
23.506107192671315
40
23.986826824783435
40
23.986826824783435
40
23.986826824783435
40
23.986826824783435
10
-21.764458406279953
20
101.01442500916426
30
0
10
-21.882305233090058
20
101.05256984479928
30
0
10
-22.000345110474498
20
101.09105905765155
30
0
10
-22.11857567028364
20
101.12989304952448
30
0
10
-26.667636981588927
20
102.62407704288329
30
0
10
-31.416612853100361
20
104.49411979275376
30
0
10
-36.257773300162832
20
107.58646520466937
30
0
10
-40.979418494314302
20
110.60246891131932
30
0
10
-45.746233370404347
20
114.81585770240778
30
0
10
-49.962927163901227
20
121.03948709892401
30
0
10
-58.505785471043062
20
133.6483192063437
30
0
10
-64.410824886398203
20
153.26308737127812
30
0
10
-66.295483813438864
20
168.97506651727394
30
0
10
-68.179275353401309
20
184.67981445156934
30
0
10
-65.761573265945657
20
196.79984344171683
30
0
10
-60.394161773101999
20
205.96066091692151
30
0
10
-55.024561408810925
20
215.12521424353852
30
0
10
-46.731315711197531
20
221.56904912588749
30
0
10
-36.014867584798914
20
224.98115794631946
30
0
10
-25.289481699969841
20
228.39611254214415
30
0
10
-12.748222948155494
20
228.89341531658141
30
0
10
8.2982213604430123e-05
20
228.89341501687306
30
0
10
12.748389015323475
20
228.89341471716466
30
0
10
25.289661969904799
20
228.39611518823656
30
0
10
36.015046471567977
20
224.98115350489309
30
0
10
46.731492998141213
20
221.56903767219987
30
0
10
55.024702375380969
20
215.1251841908304
30
0
10
60.394279120852104
20
205.96063847934732
30
0
10
65.761667058682121
20
196.79982852370335
30
0
10
68.179372596695003
20
184.67981568304995
30
0
10
66.295584156182002
20
168.97506632906254
30
0
10
64.410928333501573
20
153.26308579176387
30
0
10
58.505891737536359
20
133.64831067361581
30
0
10
49.963033358598501
20
121.03947325401856
30
0
10
45.642047729997387
20
114.66191168542548
30
0
10
40.744798076920922
20
110.39639659462283
30
0
10
35.907578984791975
20
107.36480971044337
30
0
10
31.184550193992784
20
104.40478828840619
30
0
10
26.557829869640955
20
102.58796454557117
30
0
10
22.118653806040562
20
101.1298796897552
30
0
10
17.576426719945456
20
99.637946855593015
30
0
10
13.311177017154401
20
98.656112245336914
30
0
10
9.4708580768963699
20
98.157378921379831
30
0
10
5.7227161270047588
20
97.670616409616485
30
0
10
2.5094294283243928
20
97.65451360601503
30
0
10
1.6689300534333817e-05
20
97.65451360601503
30
0
10
-2.5712151870572035
20
97.654513606015044
30
0
10
-5.8856028184107876
20
97.673271562155875
30
0
10
-9.7499228798289028
20
98.194323417249791
30
0
10
-13.420290247373888
20
98.689223346691378
30
0
10
-17.463955126061755
20
99.622431731006714
30
0
10
-21.764458406279953
20
101.01442500916426
30
0
0
ENDSEC
0
SECTION
2
OBJECTS
0
DICTIONARY
5
C
100
AcDbDictionary
3
ACAD_GROUP
350
D
3
ACAD_MLINESTYLE
350
17
0
DICTIONARY
5
D
100
AcDbDictionary
0
DICTIONARY
5
1A
330
C
100
AcDbDictionary
0
DICTIONARY
5
17
100
AcDbDictionary
0
ENDSEC
0
EOF
